<?xml version="1.0" encoding="utf-8" standalone="no"?>
<!DOCTYPE svg PUBLIC "-//W3C//DTD SVG 1.1//EN"
  "http://www.w3.org/Graphics/SVG/1.1/DTD/svg11.dtd">
<!-- Created with matplotlib (https://matplotlib.org/) -->
<svg height="576pt" version="1.1" viewBox="0 0 1080 576" width="1080pt" xmlns="http://www.w3.org/2000/svg" xmlns:xlink="http://www.w3.org/1999/xlink">
 <defs>
  <style type="text/css">
*{stroke-linecap:butt;stroke-linejoin:round;}
  </style>
 </defs>
 <g id="figure_1">
  <g id="patch_1">
   <path d="M 0 576 
L 1080 576 
L 1080 0 
L 0 0 
z
" style="fill:none;"/>
  </g>
  <g id="axes_1">
   <g id="patch_2">
    <path d="M 135 504 
L 972 504 
L 972 69.12 
L 135 69.12 
z
" style="fill:none;"/>
   </g>
   <g id="patch_3">
    <path clip-path="url(#p6712897454)" d="M 135 504 
L 170.994671 504 
L 170.994671 99.018 
L 135 99.018 
z
" style="fill:#b22222;fill-opacity:0.75;stroke:#000000;stroke-linejoin:miter;stroke-width:0.380455;"/>
   </g>
   <g id="patch_4">
    <path clip-path="url(#p6712897454)" d="M 170.994671 504 
L 206.989342 504 
L 206.989342 465.948 
L 170.994671 465.948 
z
" style="fill:#b22222;fill-opacity:0.75;stroke:#000000;stroke-linejoin:miter;stroke-width:0.380455;"/>
   </g>
   <g id="patch_5">
    <path clip-path="url(#p6712897454)" d="M 206.989342 504 
L 242.984013 504 
L 242.984013 484.974 
L 206.989342 484.974 
z
" style="fill:#b22222;fill-opacity:0.75;stroke:#000000;stroke-linejoin:miter;stroke-width:0.380455;"/>
   </g>
   <g id="patch_6">
    <path clip-path="url(#p6712897454)" d="M 242.984013 504 
L 278.978684 504 
L 278.978684 490.9536 
L 242.984013 490.9536 
z
" style="fill:#b22222;fill-opacity:0.75;stroke:#000000;stroke-linejoin:miter;stroke-width:0.380455;"/>
   </g>
   <g id="patch_7">
    <path clip-path="url(#p6712897454)" d="M 278.978684 504 
L 314.973355 504 
L 314.973355 496.3896 
L 278.978684 496.3896 
z
" style="fill:#b22222;fill-opacity:0.75;stroke:#000000;stroke-linejoin:miter;stroke-width:0.380455;"/>
   </g>
   <g id="patch_8">
    <path clip-path="url(#p6712897454)" d="M 314.973355 504 
L 350.968026 504 
L 350.968026 495.846 
L 314.973355 495.846 
z
" style="fill:#b22222;fill-opacity:0.75;stroke:#000000;stroke-linejoin:miter;stroke-width:0.380455;"/>
   </g>
   <g id="patch_9">
    <path clip-path="url(#p6712897454)" d="M 350.968026 504 
L 386.962697 504 
L 386.962697 496.3896 
L 350.968026 496.3896 
z
" style="fill:#b22222;fill-opacity:0.75;stroke:#000000;stroke-linejoin:miter;stroke-width:0.380455;"/>
   </g>
   <g id="patch_10">
    <path clip-path="url(#p6712897454)" d="M 386.962697 504 
L 422.957368 504 
L 422.957368 499.6512 
L 386.962697 499.6512 
z
" style="fill:#b22222;fill-opacity:0.75;stroke:#000000;stroke-linejoin:miter;stroke-width:0.380455;"/>
   </g>
   <g id="patch_11">
    <path clip-path="url(#p6712897454)" d="M 422.957368 504 
L 458.952039 504 
L 458.952039 497.4768 
L 422.957368 497.4768 
z
" style="fill:#b22222;fill-opacity:0.75;stroke:#000000;stroke-linejoin:miter;stroke-width:0.380455;"/>
   </g>
   <g id="patch_12">
    <path clip-path="url(#p6712897454)" d="M 458.952039 504 
L 494.946711 504 
L 494.946711 498.564 
L 458.952039 498.564 
z
" style="fill:#b22222;fill-opacity:0.75;stroke:#000000;stroke-linejoin:miter;stroke-width:0.380455;"/>
   </g>
   <g id="patch_13">
    <path clip-path="url(#p6712897454)" d="M 494.946711 504 
L 530.941382 504 
L 530.941382 502.3692 
L 494.946711 502.3692 
z
" style="fill:#b22222;fill-opacity:0.75;stroke:#000000;stroke-linejoin:miter;stroke-width:0.380455;"/>
   </g>
   <g id="patch_14">
    <path clip-path="url(#p6712897454)" d="M 530.941382 504 
L 566.936053 504 
L 566.936053 501.282 
L 530.941382 501.282 
z
" style="fill:#b22222;fill-opacity:0.75;stroke:#000000;stroke-linejoin:miter;stroke-width:0.380455;"/>
   </g>
   <g id="patch_15">
    <path clip-path="url(#p6712897454)" d="M 566.936053 504 
L 602.930724 504 
L 602.930724 501.282 
L 566.936053 501.282 
z
" style="fill:#b22222;fill-opacity:0.75;stroke:#000000;stroke-linejoin:miter;stroke-width:0.380455;"/>
   </g>
   <g id="patch_16">
    <path clip-path="url(#p6712897454)" d="M 602.930724 504 
L 638.925395 504 
L 638.925395 503.4564 
L 602.930724 503.4564 
z
" style="fill:#b22222;fill-opacity:0.75;stroke:#000000;stroke-linejoin:miter;stroke-width:0.380455;"/>
   </g>
   <g id="patch_17">
    <path clip-path="url(#p6712897454)" d="M 638.925395 504 
L 674.920066 504 
L 674.920066 503.4564 
L 638.925395 503.4564 
z
" style="fill:#b22222;fill-opacity:0.75;stroke:#000000;stroke-linejoin:miter;stroke-width:0.380455;"/>
   </g>
   <g id="patch_18">
    <path clip-path="url(#p6712897454)" d="M 674.920066 504 
L 710.914737 504 
L 710.914737 501.8256 
L 674.920066 501.8256 
z
" style="fill:#b22222;fill-opacity:0.75;stroke:#000000;stroke-linejoin:miter;stroke-width:0.380455;"/>
   </g>
   <g id="patch_19">
    <path clip-path="url(#p6712897454)" d="M 710.914737 504 
L 746.909408 504 
L 746.909408 501.282 
L 710.914737 501.282 
z
" style="fill:#b22222;fill-opacity:0.75;stroke:#000000;stroke-linejoin:miter;stroke-width:0.380455;"/>
   </g>
   <g id="patch_20">
    <path clip-path="url(#p6712897454)" d="M 746.909408 504 
L 782.904079 504 
L 782.904079 502.9128 
L 746.909408 502.9128 
z
" style="fill:#b22222;fill-opacity:0.75;stroke:#000000;stroke-linejoin:miter;stroke-width:0.380455;"/>
   </g>
   <g id="patch_21">
    <path clip-path="url(#p6712897454)" d="M 782.904079 504 
L 818.89875 504 
L 818.89875 504 
L 782.904079 504 
z
" style="fill:#b22222;fill-opacity:0.75;stroke:#000000;stroke-linejoin:miter;stroke-width:0.380455;"/>
   </g>
   <g id="patch_22">
    <path clip-path="url(#p6712897454)" d="M 818.89875 504 
L 854.893421 504 
L 854.893421 504 
L 818.89875 504 
z
" style="fill:#b22222;fill-opacity:0.75;stroke:#000000;stroke-linejoin:miter;stroke-width:0.380455;"/>
   </g>
   <g id="patch_23">
    <path clip-path="url(#p6712897454)" d="M 854.893421 504 
L 890.888092 504 
L 890.888092 504 
L 854.893421 504 
z
" style="fill:#b22222;fill-opacity:0.75;stroke:#000000;stroke-linejoin:miter;stroke-width:0.380455;"/>
   </g>
   <g id="patch_24">
    <path clip-path="url(#p6712897454)" d="M 890.888092 504 
L 926.882763 504 
L 926.882763 502.3692 
L 890.888092 502.3692 
z
" style="fill:#b22222;fill-opacity:0.75;stroke:#000000;stroke-linejoin:miter;stroke-width:0.380455;"/>
   </g>
   <g id="patch_25">
    <path clip-path="url(#p6712897454)" d="M 926.882763 504 
L 962.877434 504 
L 962.877434 502.3692 
L 926.882763 502.3692 
z
" style="fill:#b22222;fill-opacity:0.75;stroke:#000000;stroke-linejoin:miter;stroke-width:0.380455;"/>
   </g>
   <g id="patch_26">
    <path clip-path="url(#p6712897454)" d="M 962.877434 504 
L 998.872105 504 
L 998.872105 503.4564 
L 962.877434 503.4564 
z
" style="fill:#b22222;fill-opacity:0.75;stroke:#000000;stroke-linejoin:miter;stroke-width:0.380455;"/>
   </g>
   <g id="patch_27">
    <path clip-path="url(#p6712897454)" d="M 998.872105 504 
L 1034.866776 504 
L 1034.866776 503.4564 
L 998.872105 503.4564 
z
" style="fill:#b22222;fill-opacity:0.75;stroke:#000000;stroke-linejoin:miter;stroke-width:0.380455;"/>
   </g>
   <g id="patch_28">
    <path clip-path="url(#p6712897454)" d="M 1034.866776 504 
L 1070.861447 504 
L 1070.861447 503.4564 
L 1034.866776 503.4564 
z
" style="fill:#b22222;fill-opacity:0.75;stroke:#000000;stroke-linejoin:miter;stroke-width:0.380455;"/>
   </g>
   <g id="patch_29">
    <path clip-path="url(#p6712897454)" d="M 1070.861447 504 
L 1106.856118 504 
L 1106.856118 504 
L 1070.861447 504 
z
" style="fill:#b22222;fill-opacity:0.75;stroke:#000000;stroke-linejoin:miter;stroke-width:0.380455;"/>
   </g>
   <g id="patch_30">
    <path clip-path="url(#p6712897454)" d="M 1106.856118 504 
L 1142.850789 504 
L 1142.850789 502.9128 
L 1106.856118 502.9128 
z
" style="fill:#b22222;fill-opacity:0.75;stroke:#000000;stroke-linejoin:miter;stroke-width:0.380455;"/>
   </g>
   <g id="patch_31">
    <path clip-path="url(#p6712897454)" d="M 1142.850789 504 
L 1178.845461 504 
L 1178.845461 504 
L 1142.850789 504 
z
" style="fill:#b22222;fill-opacity:0.75;stroke:#000000;stroke-linejoin:miter;stroke-width:0.380455;"/>
   </g>
   <g id="patch_32">
    <path clip-path="url(#p6712897454)" d="M 1178.845461 504 
L 1214.840132 504 
L 1214.840132 504 
L 1178.845461 504 
z
" style="fill:#b22222;fill-opacity:0.75;stroke:#000000;stroke-linejoin:miter;stroke-width:0.380455;"/>
   </g>
   <g id="patch_33">
    <path clip-path="url(#p6712897454)" d="M 1214.840132 504 
L 1250.834803 504 
L 1250.834803 502.9128 
L 1214.840132 502.9128 
z
" style="fill:#b22222;fill-opacity:0.75;stroke:#000000;stroke-linejoin:miter;stroke-width:0.380455;"/>
   </g>
   <g id="patch_34">
    <path clip-path="url(#p6712897454)" d="M 1250.834803 504 
L 1286.829474 504 
L 1286.829474 504 
L 1250.834803 504 
z
" style="fill:#b22222;fill-opacity:0.75;stroke:#000000;stroke-linejoin:miter;stroke-width:0.380455;"/>
   </g>
   <g id="patch_35">
    <path clip-path="url(#p6712897454)" d="M 1286.829474 504 
L 1322.824145 504 
L 1322.824145 504 
L 1286.829474 504 
z
" style="fill:#b22222;fill-opacity:0.75;stroke:#000000;stroke-linejoin:miter;stroke-width:0.380455;"/>
   </g>
   <g id="patch_36">
    <path clip-path="url(#p6712897454)" d="M 1322.824145 504 
L 1358.818816 504 
L 1358.818816 503.4564 
L 1322.824145 503.4564 
z
" style="fill:#b22222;fill-opacity:0.75;stroke:#000000;stroke-linejoin:miter;stroke-width:0.380455;"/>
   </g>
   <g id="patch_37">
    <path clip-path="url(#p6712897454)" d="M 1358.818816 504 
L 1394.813487 504 
L 1394.813487 503.4564 
L 1358.818816 503.4564 
z
" style="fill:#b22222;fill-opacity:0.75;stroke:#000000;stroke-linejoin:miter;stroke-width:0.380455;"/>
   </g>
   <g id="patch_38">
    <path clip-path="url(#p6712897454)" d="M 1394.813487 504 
L 1430.808158 504 
L 1430.808158 503.4564 
L 1394.813487 503.4564 
z
" style="fill:#b22222;fill-opacity:0.75;stroke:#000000;stroke-linejoin:miter;stroke-width:0.380455;"/>
   </g>
   <g id="patch_39">
    <path clip-path="url(#p6712897454)" d="M 1430.808158 504 
L 1466.802829 504 
L 1466.802829 504 
L 1430.808158 504 
z
" style="fill:#b22222;fill-opacity:0.75;stroke:#000000;stroke-linejoin:miter;stroke-width:0.380455;"/>
   </g>
   <g id="patch_40">
    <path clip-path="url(#p6712897454)" d="M 1466.802829 504 
L 1502.7975 504 
L 1502.7975 503.4564 
L 1466.802829 503.4564 
z
" style="fill:#b22222;fill-opacity:0.75;stroke:#000000;stroke-linejoin:miter;stroke-width:0.380455;"/>
   </g>
   <g id="patch_41">
    <path clip-path="url(#p6712897454)" d="M 1502.7975 504 
L 1538.792171 504 
L 1538.792171 502.9128 
L 1502.7975 502.9128 
z
" style="fill:#b22222;fill-opacity:0.75;stroke:#000000;stroke-linejoin:miter;stroke-width:0.380455;"/>
   </g>
   <g id="patch_42">
    <path clip-path="url(#p6712897454)" d="M 1538.792171 504 
L 1574.786842 504 
L 1574.786842 504 
L 1538.792171 504 
z
" style="fill:#b22222;fill-opacity:0.75;stroke:#000000;stroke-linejoin:miter;stroke-width:0.380455;"/>
   </g>
   <g id="patch_43">
    <path clip-path="url(#p6712897454)" d="M 1574.786842 504 
L 1610.781513 504 
L 1610.781513 504 
L 1574.786842 504 
z
" style="fill:#b22222;fill-opacity:0.75;stroke:#000000;stroke-linejoin:miter;stroke-width:0.380455;"/>
   </g>
   <g id="patch_44">
    <path clip-path="url(#p6712897454)" d="M 1610.781513 504 
L 1646.776184 504 
L 1646.776184 504 
L 1610.781513 504 
z
" style="fill:#b22222;fill-opacity:0.75;stroke:#000000;stroke-linejoin:miter;stroke-width:0.380455;"/>
   </g>
   <g id="patch_45">
    <path clip-path="url(#p6712897454)" d="M 1646.776184 504 
L 1682.770855 504 
L 1682.770855 503.4564 
L 1646.776184 503.4564 
z
" style="fill:#b22222;fill-opacity:0.75;stroke:#000000;stroke-linejoin:miter;stroke-width:0.380455;"/>
   </g>
   <g id="patch_46">
    <path clip-path="url(#p6712897454)" d="M 1682.770855 504 
L 1718.765526 504 
L 1718.765526 504 
L 1682.770855 504 
z
" style="fill:#b22222;fill-opacity:0.75;stroke:#000000;stroke-linejoin:miter;stroke-width:0.380455;"/>
   </g>
   <g id="patch_47">
    <path clip-path="url(#p6712897454)" d="M 1718.765526 504 
L 1754.760197 504 
L 1754.760197 504 
L 1718.765526 504 
z
" style="fill:#b22222;fill-opacity:0.75;stroke:#000000;stroke-linejoin:miter;stroke-width:0.380455;"/>
   </g>
   <g id="patch_48">
    <path clip-path="url(#p6712897454)" d="M 1754.760197 504 
L 1790.754868 504 
L 1790.754868 504 
L 1754.760197 504 
z
" style="fill:#b22222;fill-opacity:0.75;stroke:#000000;stroke-linejoin:miter;stroke-width:0.380455;"/>
   </g>
   <g id="patch_49">
    <path clip-path="url(#p6712897454)" d="M 1790.754868 504 
L 1826.749539 504 
L 1826.749539 503.4564 
L 1790.754868 503.4564 
z
" style="fill:#b22222;fill-opacity:0.75;stroke:#000000;stroke-linejoin:miter;stroke-width:0.380455;"/>
   </g>
   <g id="patch_50">
    <path clip-path="url(#p6712897454)" d="M 1826.749539 504 
L 1862.744211 504 
L 1862.744211 504 
L 1826.749539 504 
z
" style="fill:#b22222;fill-opacity:0.75;stroke:#000000;stroke-linejoin:miter;stroke-width:0.380455;"/>
   </g>
   <g id="patch_51">
    <path clip-path="url(#p6712897454)" d="M 1862.744211 504 
L 1898.738882 504 
L 1898.738882 504 
L 1862.744211 504 
z
" style="fill:#b22222;fill-opacity:0.75;stroke:#000000;stroke-linejoin:miter;stroke-width:0.380455;"/>
   </g>
   <g id="patch_52">
    <path clip-path="url(#p6712897454)" d="M 1898.738882 504 
L 1934.733553 504 
L 1934.733553 503.4564 
L 1898.738882 503.4564 
z
" style="fill:#b22222;fill-opacity:0.75;stroke:#000000;stroke-linejoin:miter;stroke-width:0.380455;"/>
   </g>
   <g id="patch_53">
    <path clip-path="url(#p6712897454)" d="M 1934.733553 504 
L 1970.728224 504 
L 1970.728224 503.4564 
L 1934.733553 503.4564 
z
" style="fill:#b22222;fill-opacity:0.75;stroke:#000000;stroke-linejoin:miter;stroke-width:0.380455;"/>
   </g>
   <g id="patch_54">
    <path clip-path="url(#p6712897454)" d="M 1970.728224 504 
L 2006.722895 504 
L 2006.722895 504 
L 1970.728224 504 
z
" style="fill:#b22222;fill-opacity:0.75;stroke:#000000;stroke-linejoin:miter;stroke-width:0.380455;"/>
   </g>
   <g id="patch_55">
    <path clip-path="url(#p6712897454)" d="M 2006.722895 504 
L 2042.717566 504 
L 2042.717566 504 
L 2006.722895 504 
z
" style="fill:#b22222;fill-opacity:0.75;stroke:#000000;stroke-linejoin:miter;stroke-width:0.380455;"/>
   </g>
   <g id="patch_56">
    <path clip-path="url(#p6712897454)" d="M 2042.717566 504 
L 2078.712237 504 
L 2078.712237 504 
L 2042.717566 504 
z
" style="fill:#b22222;fill-opacity:0.75;stroke:#000000;stroke-linejoin:miter;stroke-width:0.380455;"/>
   </g>
   <g id="patch_57">
    <path clip-path="url(#p6712897454)" d="M 2078.712237 504 
L 2114.706908 504 
L 2114.706908 504 
L 2078.712237 504 
z
" style="fill:#b22222;fill-opacity:0.75;stroke:#000000;stroke-linejoin:miter;stroke-width:0.380455;"/>
   </g>
   <g id="patch_58">
    <path clip-path="url(#p6712897454)" d="M 2114.706908 504 
L 2150.701579 504 
L 2150.701579 503.4564 
L 2114.706908 503.4564 
z
" style="fill:#b22222;fill-opacity:0.75;stroke:#000000;stroke-linejoin:miter;stroke-width:0.380455;"/>
   </g>
   <g id="patch_59">
    <path clip-path="url(#p6712897454)" d="M 2150.701579 504 
L 2186.69625 504 
L 2186.69625 504 
L 2150.701579 504 
z
" style="fill:#b22222;fill-opacity:0.75;stroke:#000000;stroke-linejoin:miter;stroke-width:0.380455;"/>
   </g>
   <g id="patch_60">
    <path clip-path="url(#p6712897454)" d="M 2186.69625 504 
L 2222.690921 504 
L 2222.690921 504 
L 2186.69625 504 
z
" style="fill:#b22222;fill-opacity:0.75;stroke:#000000;stroke-linejoin:miter;stroke-width:0.380455;"/>
   </g>
   <g id="patch_61">
    <path clip-path="url(#p6712897454)" d="M 2222.690921 504 
L 2258.685592 504 
L 2258.685592 504 
L 2222.690921 504 
z
" style="fill:#b22222;fill-opacity:0.75;stroke:#000000;stroke-linejoin:miter;stroke-width:0.380455;"/>
   </g>
   <g id="patch_62">
    <path clip-path="url(#p6712897454)" d="M 2258.685592 504 
L 2294.680263 504 
L 2294.680263 504 
L 2258.685592 504 
z
" style="fill:#b22222;fill-opacity:0.75;stroke:#000000;stroke-linejoin:miter;stroke-width:0.380455;"/>
   </g>
   <g id="patch_63">
    <path clip-path="url(#p6712897454)" d="M 2294.680263 504 
L 2330.674934 504 
L 2330.674934 504 
L 2294.680263 504 
z
" style="fill:#b22222;fill-opacity:0.75;stroke:#000000;stroke-linejoin:miter;stroke-width:0.380455;"/>
   </g>
   <g id="patch_64">
    <path clip-path="url(#p6712897454)" d="M 2330.674934 504 
L 2366.669605 504 
L 2366.669605 504 
L 2330.674934 504 
z
" style="fill:#b22222;fill-opacity:0.75;stroke:#000000;stroke-linejoin:miter;stroke-width:0.380455;"/>
   </g>
   <g id="patch_65">
    <path clip-path="url(#p6712897454)" d="M 2366.669605 504 
L 2402.664276 504 
L 2402.664276 503.4564 
L 2366.669605 503.4564 
z
" style="fill:#b22222;fill-opacity:0.75;stroke:#000000;stroke-linejoin:miter;stroke-width:0.380455;"/>
   </g>
   <g id="patch_66">
    <path clip-path="url(#p6712897454)" d="M 2402.664276 504 
L 2438.658947 504 
L 2438.658947 504 
L 2402.664276 504 
z
" style="fill:#b22222;fill-opacity:0.75;stroke:#000000;stroke-linejoin:miter;stroke-width:0.380455;"/>
   </g>
   <g id="patch_67">
    <path clip-path="url(#p6712897454)" d="M 2438.658947 504 
L 2474.653618 504 
L 2474.653618 504 
L 2438.658947 504 
z
" style="fill:#b22222;fill-opacity:0.75;stroke:#000000;stroke-linejoin:miter;stroke-width:0.380455;"/>
   </g>
   <g id="patch_68">
    <path clip-path="url(#p6712897454)" d="M 2474.653618 504 
L 2510.648289 504 
L 2510.648289 504 
L 2474.653618 504 
z
" style="fill:#b22222;fill-opacity:0.75;stroke:#000000;stroke-linejoin:miter;stroke-width:0.380455;"/>
   </g>
   <g id="patch_69">
    <path clip-path="url(#p6712897454)" d="M 2510.648289 504 
L 2546.642961 504 
L 2546.642961 504 
L 2510.648289 504 
z
" style="fill:#b22222;fill-opacity:0.75;stroke:#000000;stroke-linejoin:miter;stroke-width:0.380455;"/>
   </g>
   <g id="patch_70">
    <path clip-path="url(#p6712897454)" d="M 2546.642961 504 
L 2582.637632 504 
L 2582.637632 504 
L 2546.642961 504 
z
" style="fill:#b22222;fill-opacity:0.75;stroke:#000000;stroke-linejoin:miter;stroke-width:0.380455;"/>
   </g>
   <g id="patch_71">
    <path clip-path="url(#p6712897454)" d="M 2582.637632 504 
L 2618.632303 504 
L 2618.632303 504 
L 2582.637632 504 
z
" style="fill:#b22222;fill-opacity:0.75;stroke:#000000;stroke-linejoin:miter;stroke-width:0.380455;"/>
   </g>
   <g id="patch_72">
    <path clip-path="url(#p6712897454)" d="M 2618.632303 504 
L 2654.626974 504 
L 2654.626974 504 
L 2618.632303 504 
z
" style="fill:#b22222;fill-opacity:0.75;stroke:#000000;stroke-linejoin:miter;stroke-width:0.380455;"/>
   </g>
   <g id="patch_73">
    <path clip-path="url(#p6712897454)" d="M 2654.626974 504 
L 2690.621645 504 
L 2690.621645 504 
L 2654.626974 504 
z
" style="fill:#b22222;fill-opacity:0.75;stroke:#000000;stroke-linejoin:miter;stroke-width:0.380455;"/>
   </g>
   <g id="patch_74">
    <path clip-path="url(#p6712897454)" d="M 2690.621645 504 
L 2726.616316 504 
L 2726.616316 504 
L 2690.621645 504 
z
" style="fill:#b22222;fill-opacity:0.75;stroke:#000000;stroke-linejoin:miter;stroke-width:0.380455;"/>
   </g>
   <g id="patch_75">
    <path clip-path="url(#p6712897454)" d="M 2726.616316 504 
L 2762.610987 504 
L 2762.610987 504 
L 2726.616316 504 
z
" style="fill:#b22222;fill-opacity:0.75;stroke:#000000;stroke-linejoin:miter;stroke-width:0.380455;"/>
   </g>
   <g id="patch_76">
    <path clip-path="url(#p6712897454)" d="M 2762.610987 504 
L 2798.605658 504 
L 2798.605658 504 
L 2762.610987 504 
z
" style="fill:#b22222;fill-opacity:0.75;stroke:#000000;stroke-linejoin:miter;stroke-width:0.380455;"/>
   </g>
   <g id="patch_77">
    <path clip-path="url(#p6712897454)" d="M 2798.605658 504 
L 2834.600329 504 
L 2834.600329 504 
L 2798.605658 504 
z
" style="fill:#b22222;fill-opacity:0.75;stroke:#000000;stroke-linejoin:miter;stroke-width:0.380455;"/>
   </g>
   <g id="patch_78">
    <path clip-path="url(#p6712897454)" d="M 2834.600329 504 
L 2870.595 504 
L 2870.595 504 
L 2834.600329 504 
z
" style="fill:#b22222;fill-opacity:0.75;stroke:#000000;stroke-linejoin:miter;stroke-width:0.380455;"/>
   </g>
   <g id="patch_79">
    <path clip-path="url(#p6712897454)" d="M 2870.595 504 
L 2906.589671 504 
L 2906.589671 504 
L 2870.595 504 
z
" style="fill:#b22222;fill-opacity:0.75;stroke:#000000;stroke-linejoin:miter;stroke-width:0.380455;"/>
   </g>
   <g id="patch_80">
    <path clip-path="url(#p6712897454)" d="M 2906.589671 504 
L 2942.584342 504 
L 2942.584342 504 
L 2906.589671 504 
z
" style="fill:#b22222;fill-opacity:0.75;stroke:#000000;stroke-linejoin:miter;stroke-width:0.380455;"/>
   </g>
   <g id="patch_81">
    <path clip-path="url(#p6712897454)" d="M 2942.584342 504 
L 2978.579013 504 
L 2978.579013 504 
L 2942.584342 504 
z
" style="fill:#b22222;fill-opacity:0.75;stroke:#000000;stroke-linejoin:miter;stroke-width:0.380455;"/>
   </g>
   <g id="patch_82">
    <path clip-path="url(#p6712897454)" d="M 2978.579013 504 
L 3014.573684 504 
L 3014.573684 504 
L 2978.579013 504 
z
" style="fill:#b22222;fill-opacity:0.75;stroke:#000000;stroke-linejoin:miter;stroke-width:0.380455;"/>
   </g>
   <g id="patch_83">
    <path clip-path="url(#p6712897454)" d="M 3014.573684 504 
L 3050.568355 504 
L 3050.568355 504 
L 3014.573684 504 
z
" style="fill:#b22222;fill-opacity:0.75;stroke:#000000;stroke-linejoin:miter;stroke-width:0.380455;"/>
   </g>
   <g id="patch_84">
    <path clip-path="url(#p6712897454)" d="M 3050.568355 504 
L 3086.563026 504 
L 3086.563026 504 
L 3050.568355 504 
z
" style="fill:#b22222;fill-opacity:0.75;stroke:#000000;stroke-linejoin:miter;stroke-width:0.380455;"/>
   </g>
   <g id="patch_85">
    <path clip-path="url(#p6712897454)" d="M 3086.563026 504 
L 3122.557697 504 
L 3122.557697 504 
L 3086.563026 504 
z
" style="fill:#b22222;fill-opacity:0.75;stroke:#000000;stroke-linejoin:miter;stroke-width:0.380455;"/>
   </g>
   <g id="patch_86">
    <path clip-path="url(#p6712897454)" d="M 3122.557697 504 
L 3158.552368 504 
L 3158.552368 504 
L 3122.557697 504 
z
" style="fill:#b22222;fill-opacity:0.75;stroke:#000000;stroke-linejoin:miter;stroke-width:0.380455;"/>
   </g>
   <g id="patch_87">
    <path clip-path="url(#p6712897454)" d="M 3158.552368 504 
L 3194.547039 504 
L 3194.547039 504 
L 3158.552368 504 
z
" style="fill:#b22222;fill-opacity:0.75;stroke:#000000;stroke-linejoin:miter;stroke-width:0.380455;"/>
   </g>
   <g id="patch_88">
    <path clip-path="url(#p6712897454)" d="M 3194.547039 504 
L 3230.541711 504 
L 3230.541711 504 
L 3194.547039 504 
z
" style="fill:#b22222;fill-opacity:0.75;stroke:#000000;stroke-linejoin:miter;stroke-width:0.380455;"/>
   </g>
   <g id="patch_89">
    <path clip-path="url(#p6712897454)" d="M 3230.541711 504 
L 3266.536382 504 
L 3266.536382 504 
L 3230.541711 504 
z
" style="fill:#b22222;fill-opacity:0.75;stroke:#000000;stroke-linejoin:miter;stroke-width:0.380455;"/>
   </g>
   <g id="patch_90">
    <path clip-path="url(#p6712897454)" d="M 3266.536382 504 
L 3302.531053 504 
L 3302.531053 504 
L 3266.536382 504 
z
" style="fill:#b22222;fill-opacity:0.75;stroke:#000000;stroke-linejoin:miter;stroke-width:0.380455;"/>
   </g>
   <g id="patch_91">
    <path clip-path="url(#p6712897454)" d="M 3302.531053 504 
L 3338.525724 504 
L 3338.525724 504 
L 3302.531053 504 
z
" style="fill:#b22222;fill-opacity:0.75;stroke:#000000;stroke-linejoin:miter;stroke-width:0.380455;"/>
   </g>
   <g id="patch_92">
    <path clip-path="url(#p6712897454)" d="M 3338.525724 504 
L 3374.520395 504 
L 3374.520395 504 
L 3338.525724 504 
z
" style="fill:#b22222;fill-opacity:0.75;stroke:#000000;stroke-linejoin:miter;stroke-width:0.380455;"/>
   </g>
   <g id="patch_93">
    <path clip-path="url(#p6712897454)" d="M 3374.520395 504 
L 3410.515066 504 
L 3410.515066 504 
L 3374.520395 504 
z
" style="fill:#b22222;fill-opacity:0.75;stroke:#000000;stroke-linejoin:miter;stroke-width:0.380455;"/>
   </g>
   <g id="patch_94">
    <path clip-path="url(#p6712897454)" d="M 3410.515066 504 
L 3446.509737 504 
L 3446.509737 504 
L 3410.515066 504 
z
" style="fill:#b22222;fill-opacity:0.75;stroke:#000000;stroke-linejoin:miter;stroke-width:0.380455;"/>
   </g>
   <g id="patch_95">
    <path clip-path="url(#p6712897454)" d="M 3446.509737 504 
L 3482.504408 504 
L 3482.504408 504 
L 3446.509737 504 
z
" style="fill:#b22222;fill-opacity:0.75;stroke:#000000;stroke-linejoin:miter;stroke-width:0.380455;"/>
   </g>
   <g id="patch_96">
    <path clip-path="url(#p6712897454)" d="M 3482.504408 504 
L 3518.499079 504 
L 3518.499079 504 
L 3482.504408 504 
z
" style="fill:#b22222;fill-opacity:0.75;stroke:#000000;stroke-linejoin:miter;stroke-width:0.380455;"/>
   </g>
   <g id="patch_97">
    <path clip-path="url(#p6712897454)" d="M 3518.499079 504 
L 3554.49375 504 
L 3554.49375 504 
L 3518.499079 504 
z
" style="fill:#b22222;fill-opacity:0.75;stroke:#000000;stroke-linejoin:miter;stroke-width:0.380455;"/>
   </g>
   <g id="patch_98">
    <path clip-path="url(#p6712897454)" d="M 3554.49375 504 
L 3590.488421 504 
L 3590.488421 504 
L 3554.49375 504 
z
" style="fill:#b22222;fill-opacity:0.75;stroke:#000000;stroke-linejoin:miter;stroke-width:0.380455;"/>
   </g>
   <g id="patch_99">
    <path clip-path="url(#p6712897454)" d="M 3590.488421 504 
L 3626.483092 504 
L 3626.483092 504 
L 3590.488421 504 
z
" style="fill:#b22222;fill-opacity:0.75;stroke:#000000;stroke-linejoin:miter;stroke-width:0.380455;"/>
   </g>
   <g id="patch_100">
    <path clip-path="url(#p6712897454)" d="M 3626.483092 504 
L 3662.477763 504 
L 3662.477763 504 
L 3626.483092 504 
z
" style="fill:#b22222;fill-opacity:0.75;stroke:#000000;stroke-linejoin:miter;stroke-width:0.380455;"/>
   </g>
   <g id="patch_101">
    <path clip-path="url(#p6712897454)" d="M 3662.477763 504 
L 3698.472434 504 
L 3698.472434 504 
L 3662.477763 504 
z
" style="fill:#b22222;fill-opacity:0.75;stroke:#000000;stroke-linejoin:miter;stroke-width:0.380455;"/>
   </g>
   <g id="patch_102">
    <path clip-path="url(#p6712897454)" d="M 3698.472434 504 
L 3734.467105 504 
L 3734.467105 504 
L 3698.472434 504 
z
" style="fill:#b22222;fill-opacity:0.75;stroke:#000000;stroke-linejoin:miter;stroke-width:0.380455;"/>
   </g>
   <g id="patch_103">
    <path clip-path="url(#p6712897454)" d="M 3734.467105 504 
L 3770.461776 504 
L 3770.461776 504 
L 3734.467105 504 
z
" style="fill:#b22222;fill-opacity:0.75;stroke:#000000;stroke-linejoin:miter;stroke-width:0.380455;"/>
   </g>
   <g id="patch_104">
    <path clip-path="url(#p6712897454)" d="M 3770.461776 504 
L 3806.456447 504 
L 3806.456447 504 
L 3770.461776 504 
z
" style="fill:#b22222;fill-opacity:0.75;stroke:#000000;stroke-linejoin:miter;stroke-width:0.380455;"/>
   </g>
   <g id="patch_105">
    <path clip-path="url(#p6712897454)" d="M 3806.456447 504 
L 3842.451118 504 
L 3842.451118 504 
L 3806.456447 504 
z
" style="fill:#b22222;fill-opacity:0.75;stroke:#000000;stroke-linejoin:miter;stroke-width:0.380455;"/>
   </g>
   <g id="patch_106">
    <path clip-path="url(#p6712897454)" d="M 3842.451118 504 
L 3878.445789 504 
L 3878.445789 504 
L 3842.451118 504 
z
" style="fill:#b22222;fill-opacity:0.75;stroke:#000000;stroke-linejoin:miter;stroke-width:0.380455;"/>
   </g>
   <g id="patch_107">
    <path clip-path="url(#p6712897454)" d="M 3878.445789 504 
L 3914.440461 504 
L 3914.440461 504 
L 3878.445789 504 
z
" style="fill:#b22222;fill-opacity:0.75;stroke:#000000;stroke-linejoin:miter;stroke-width:0.380455;"/>
   </g>
   <g id="patch_108">
    <path clip-path="url(#p6712897454)" d="M 3914.440461 504 
L 3950.435132 504 
L 3950.435132 504 
L 3914.440461 504 
z
" style="fill:#b22222;fill-opacity:0.75;stroke:#000000;stroke-linejoin:miter;stroke-width:0.380455;"/>
   </g>
   <g id="patch_109">
    <path clip-path="url(#p6712897454)" d="M 3950.435132 504 
L 3986.429803 504 
L 3986.429803 504 
L 3950.435132 504 
z
" style="fill:#b22222;fill-opacity:0.75;stroke:#000000;stroke-linejoin:miter;stroke-width:0.380455;"/>
   </g>
   <g id="patch_110">
    <path clip-path="url(#p6712897454)" d="M 3986.429803 504 
L 4022.424474 504 
L 4022.424474 504 
L 3986.429803 504 
z
" style="fill:#b22222;fill-opacity:0.75;stroke:#000000;stroke-linejoin:miter;stroke-width:0.380455;"/>
   </g>
   <g id="patch_111">
    <path clip-path="url(#p6712897454)" d="M 4022.424474 504 
L 4058.419145 504 
L 4058.419145 504 
L 4022.424474 504 
z
" style="fill:#b22222;fill-opacity:0.75;stroke:#000000;stroke-linejoin:miter;stroke-width:0.380455;"/>
   </g>
   <g id="patch_112">
    <path clip-path="url(#p6712897454)" d="M 4058.419145 504 
L 4094.413816 504 
L 4094.413816 504 
L 4058.419145 504 
z
" style="fill:#b22222;fill-opacity:0.75;stroke:#000000;stroke-linejoin:miter;stroke-width:0.380455;"/>
   </g>
   <g id="patch_113">
    <path clip-path="url(#p6712897454)" d="M 4094.413816 504 
L 4130.408487 504 
L 4130.408487 504 
L 4094.413816 504 
z
" style="fill:#b22222;fill-opacity:0.75;stroke:#000000;stroke-linejoin:miter;stroke-width:0.380455;"/>
   </g>
   <g id="patch_114">
    <path clip-path="url(#p6712897454)" d="M 4130.408487 504 
L 4166.403158 504 
L 4166.403158 504 
L 4130.408487 504 
z
" style="fill:#b22222;fill-opacity:0.75;stroke:#000000;stroke-linejoin:miter;stroke-width:0.380455;"/>
   </g>
   <g id="patch_115">
    <path clip-path="url(#p6712897454)" d="M 4166.403158 504 
L 4202.397829 504 
L 4202.397829 504 
L 4166.403158 504 
z
" style="fill:#b22222;fill-opacity:0.75;stroke:#000000;stroke-linejoin:miter;stroke-width:0.380455;"/>
   </g>
   <g id="patch_116">
    <path clip-path="url(#p6712897454)" d="M 4202.397829 504 
L 4238.3925 504 
L 4238.3925 504 
L 4202.397829 504 
z
" style="fill:#b22222;fill-opacity:0.75;stroke:#000000;stroke-linejoin:miter;stroke-width:0.380455;"/>
   </g>
   <g id="patch_117">
    <path clip-path="url(#p6712897454)" d="M 4238.3925 504 
L 4274.387171 504 
L 4274.387171 504 
L 4238.3925 504 
z
" style="fill:#b22222;fill-opacity:0.75;stroke:#000000;stroke-linejoin:miter;stroke-width:0.380455;"/>
   </g>
   <g id="patch_118">
    <path clip-path="url(#p6712897454)" d="M 4274.387171 504 
L 4310.381842 504 
L 4310.381842 504 
L 4274.387171 504 
z
" style="fill:#b22222;fill-opacity:0.75;stroke:#000000;stroke-linejoin:miter;stroke-width:0.380455;"/>
   </g>
   <g id="patch_119">
    <path clip-path="url(#p6712897454)" d="M 4310.381842 504 
L 4346.376513 504 
L 4346.376513 504 
L 4310.381842 504 
z
" style="fill:#b22222;fill-opacity:0.75;stroke:#000000;stroke-linejoin:miter;stroke-width:0.380455;"/>
   </g>
   <g id="patch_120">
    <path clip-path="url(#p6712897454)" d="M 4346.376513 504 
L 4382.371184 504 
L 4382.371184 504 
L 4346.376513 504 
z
" style="fill:#b22222;fill-opacity:0.75;stroke:#000000;stroke-linejoin:miter;stroke-width:0.380455;"/>
   </g>
   <g id="patch_121">
    <path clip-path="url(#p6712897454)" d="M 4382.371184 504 
L 4418.365855 504 
L 4418.365855 504 
L 4382.371184 504 
z
" style="fill:#b22222;fill-opacity:0.75;stroke:#000000;stroke-linejoin:miter;stroke-width:0.380455;"/>
   </g>
   <g id="patch_122">
    <path clip-path="url(#p6712897454)" d="M 4418.365855 504 
L 4454.360526 504 
L 4454.360526 504 
L 4418.365855 504 
z
" style="fill:#b22222;fill-opacity:0.75;stroke:#000000;stroke-linejoin:miter;stroke-width:0.380455;"/>
   </g>
   <g id="patch_123">
    <path clip-path="url(#p6712897454)" d="M 4454.360526 504 
L 4490.355197 504 
L 4490.355197 504 
L 4454.360526 504 
z
" style="fill:#b22222;fill-opacity:0.75;stroke:#000000;stroke-linejoin:miter;stroke-width:0.380455;"/>
   </g>
   <g id="patch_124">
    <path clip-path="url(#p6712897454)" d="M 4490.355197 504 
L 4526.349868 504 
L 4526.349868 504 
L 4490.355197 504 
z
" style="fill:#b22222;fill-opacity:0.75;stroke:#000000;stroke-linejoin:miter;stroke-width:0.380455;"/>
   </g>
   <g id="patch_125">
    <path clip-path="url(#p6712897454)" d="M 4526.349868 504 
L 4562.344539 504 
L 4562.344539 504 
L 4526.349868 504 
z
" style="fill:#b22222;fill-opacity:0.75;stroke:#000000;stroke-linejoin:miter;stroke-width:0.380455;"/>
   </g>
   <g id="patch_126">
    <path clip-path="url(#p6712897454)" d="M 4562.344539 504 
L 4598.339211 504 
L 4598.339211 504 
L 4562.344539 504 
z
" style="fill:#b22222;fill-opacity:0.75;stroke:#000000;stroke-linejoin:miter;stroke-width:0.380455;"/>
   </g>
   <g id="patch_127">
    <path clip-path="url(#p6712897454)" d="M 4598.339211 504 
L 4634.333882 504 
L 4634.333882 504 
L 4598.339211 504 
z
" style="fill:#b22222;fill-opacity:0.75;stroke:#000000;stroke-linejoin:miter;stroke-width:0.380455;"/>
   </g>
   <g id="patch_128">
    <path clip-path="url(#p6712897454)" d="M 4634.333882 504 
L 4670.328553 504 
L 4670.328553 504 
L 4634.333882 504 
z
" style="fill:#b22222;fill-opacity:0.75;stroke:#000000;stroke-linejoin:miter;stroke-width:0.380455;"/>
   </g>
   <g id="patch_129">
    <path clip-path="url(#p6712897454)" d="M 4670.328553 504 
L 4706.323224 504 
L 4706.323224 504 
L 4670.328553 504 
z
" style="fill:#b22222;fill-opacity:0.75;stroke:#000000;stroke-linejoin:miter;stroke-width:0.380455;"/>
   </g>
   <g id="patch_130">
    <path clip-path="url(#p6712897454)" d="M 4706.323224 504 
L 4742.317895 504 
L 4742.317895 504 
L 4706.323224 504 
z
" style="fill:#b22222;fill-opacity:0.75;stroke:#000000;stroke-linejoin:miter;stroke-width:0.380455;"/>
   </g>
   <g id="patch_131">
    <path clip-path="url(#p6712897454)" d="M 4742.317895 504 
L 4778.312566 504 
L 4778.312566 504 
L 4742.317895 504 
z
" style="fill:#b22222;fill-opacity:0.75;stroke:#000000;stroke-linejoin:miter;stroke-width:0.380455;"/>
   </g>
   <g id="patch_132">
    <path clip-path="url(#p6712897454)" d="M 4778.312566 504 
L 4814.307237 504 
L 4814.307237 504 
L 4778.312566 504 
z
" style="fill:#b22222;fill-opacity:0.75;stroke:#000000;stroke-linejoin:miter;stroke-width:0.380455;"/>
   </g>
   <g id="patch_133">
    <path clip-path="url(#p6712897454)" d="M 4814.307237 504 
L 4850.301908 504 
L 4850.301908 504 
L 4814.307237 504 
z
" style="fill:#b22222;fill-opacity:0.75;stroke:#000000;stroke-linejoin:miter;stroke-width:0.380455;"/>
   </g>
   <g id="patch_134">
    <path clip-path="url(#p6712897454)" d="M 4850.301908 504 
L 4886.296579 504 
L 4886.296579 504 
L 4850.301908 504 
z
" style="fill:#b22222;fill-opacity:0.75;stroke:#000000;stroke-linejoin:miter;stroke-width:0.380455;"/>
   </g>
   <g id="patch_135">
    <path clip-path="url(#p6712897454)" d="M 4886.296579 504 
L 4922.29125 504 
L 4922.29125 504 
L 4886.296579 504 
z
" style="fill:#b22222;fill-opacity:0.75;stroke:#000000;stroke-linejoin:miter;stroke-width:0.380455;"/>
   </g>
   <g id="patch_136">
    <path clip-path="url(#p6712897454)" d="M 4922.29125 504 
L 4958.285921 504 
L 4958.285921 504 
L 4922.29125 504 
z
" style="fill:#b22222;fill-opacity:0.75;stroke:#000000;stroke-linejoin:miter;stroke-width:0.380455;"/>
   </g>
   <g id="patch_137">
    <path clip-path="url(#p6712897454)" d="M 4958.285921 504 
L 4994.280592 504 
L 4994.280592 504 
L 4958.285921 504 
z
" style="fill:#b22222;fill-opacity:0.75;stroke:#000000;stroke-linejoin:miter;stroke-width:0.380455;"/>
   </g>
   <g id="patch_138">
    <path clip-path="url(#p6712897454)" d="M 4994.280592 504 
L 5030.275263 504 
L 5030.275263 504 
L 4994.280592 504 
z
" style="fill:#b22222;fill-opacity:0.75;stroke:#000000;stroke-linejoin:miter;stroke-width:0.380455;"/>
   </g>
   <g id="patch_139">
    <path clip-path="url(#p6712897454)" d="M 5030.275263 504 
L 5066.269934 504 
L 5066.269934 504 
L 5030.275263 504 
z
" style="fill:#b22222;fill-opacity:0.75;stroke:#000000;stroke-linejoin:miter;stroke-width:0.380455;"/>
   </g>
   <g id="patch_140">
    <path clip-path="url(#p6712897454)" d="M 5066.269934 504 
L 5102.264605 504 
L 5102.264605 504 
L 5066.269934 504 
z
" style="fill:#b22222;fill-opacity:0.75;stroke:#000000;stroke-linejoin:miter;stroke-width:0.380455;"/>
   </g>
   <g id="patch_141">
    <path clip-path="url(#p6712897454)" d="M 5102.264605 504 
L 5138.259276 504 
L 5138.259276 504 
L 5102.264605 504 
z
" style="fill:#b22222;fill-opacity:0.75;stroke:#000000;stroke-linejoin:miter;stroke-width:0.380455;"/>
   </g>
   <g id="patch_142">
    <path clip-path="url(#p6712897454)" d="M 5138.259276 504 
L 5174.253947 504 
L 5174.253947 504 
L 5138.259276 504 
z
" style="fill:#b22222;fill-opacity:0.75;stroke:#000000;stroke-linejoin:miter;stroke-width:0.380455;"/>
   </g>
   <g id="patch_143">
    <path clip-path="url(#p6712897454)" d="M 5174.253947 504 
L 5210.248618 504 
L 5210.248618 504 
L 5174.253947 504 
z
" style="fill:#b22222;fill-opacity:0.75;stroke:#000000;stroke-linejoin:miter;stroke-width:0.380455;"/>
   </g>
   <g id="patch_144">
    <path clip-path="url(#p6712897454)" d="M 5210.248618 504 
L 5246.243289 504 
L 5246.243289 504 
L 5210.248618 504 
z
" style="fill:#b22222;fill-opacity:0.75;stroke:#000000;stroke-linejoin:miter;stroke-width:0.380455;"/>
   </g>
   <g id="patch_145">
    <path clip-path="url(#p6712897454)" d="M 5246.243289 504 
L 5282.237961 504 
L 5282.237961 504 
L 5246.243289 504 
z
" style="fill:#b22222;fill-opacity:0.75;stroke:#000000;stroke-linejoin:miter;stroke-width:0.380455;"/>
   </g>
   <g id="patch_146">
    <path clip-path="url(#p6712897454)" d="M 5282.237961 504 
L 5318.232632 504 
L 5318.232632 504 
L 5282.237961 504 
z
" style="fill:#b22222;fill-opacity:0.75;stroke:#000000;stroke-linejoin:miter;stroke-width:0.380455;"/>
   </g>
   <g id="patch_147">
    <path clip-path="url(#p6712897454)" d="M 5318.232632 504 
L 5354.227303 504 
L 5354.227303 504 
L 5318.232632 504 
z
" style="fill:#b22222;fill-opacity:0.75;stroke:#000000;stroke-linejoin:miter;stroke-width:0.380455;"/>
   </g>
   <g id="patch_148">
    <path clip-path="url(#p6712897454)" d="M 5354.227303 504 
L 5390.221974 504 
L 5390.221974 504 
L 5354.227303 504 
z
" style="fill:#b22222;fill-opacity:0.75;stroke:#000000;stroke-linejoin:miter;stroke-width:0.380455;"/>
   </g>
   <g id="patch_149">
    <path clip-path="url(#p6712897454)" d="M 5390.221974 504 
L 5426.216645 504 
L 5426.216645 504 
L 5390.221974 504 
z
" style="fill:#b22222;fill-opacity:0.75;stroke:#000000;stroke-linejoin:miter;stroke-width:0.380455;"/>
   </g>
   <g id="patch_150">
    <path clip-path="url(#p6712897454)" d="M 5426.216645 504 
L 5462.211316 504 
L 5462.211316 504 
L 5426.216645 504 
z
" style="fill:#b22222;fill-opacity:0.75;stroke:#000000;stroke-linejoin:miter;stroke-width:0.380455;"/>
   </g>
   <g id="patch_151">
    <path clip-path="url(#p6712897454)" d="M 5462.211316 504 
L 5498.205987 504 
L 5498.205987 504 
L 5462.211316 504 
z
" style="fill:#b22222;fill-opacity:0.75;stroke:#000000;stroke-linejoin:miter;stroke-width:0.380455;"/>
   </g>
   <g id="patch_152">
    <path clip-path="url(#p6712897454)" d="M 5498.205987 504 
L 5534.200658 504 
L 5534.200658 504 
L 5498.205987 504 
z
" style="fill:#b22222;fill-opacity:0.75;stroke:#000000;stroke-linejoin:miter;stroke-width:0.380455;"/>
   </g>
   <g id="patch_153">
    <path clip-path="url(#p6712897454)" d="M 5534.200658 504 
L 5570.195329 504 
L 5570.195329 504 
L 5534.200658 504 
z
" style="fill:#b22222;fill-opacity:0.75;stroke:#000000;stroke-linejoin:miter;stroke-width:0.380455;"/>
   </g>
   <g id="patch_154">
    <path clip-path="url(#p6712897454)" d="M 5570.195329 504 
L 5606.19 504 
L 5606.19 503.4564 
L 5570.195329 503.4564 
z
" style="fill:#b22222;fill-opacity:0.75;stroke:#000000;stroke-linejoin:miter;stroke-width:0.380455;"/>
   </g>
   <g id="patch_155">
    <path clip-path="url(#p6712897454)" d="M 5606.19 504 
L 5642.184671 504 
L 5642.184671 504 
L 5606.19 504 
z
" style="fill:#b22222;fill-opacity:0.75;stroke:#000000;stroke-linejoin:miter;stroke-width:0.380455;"/>
   </g>
   <g id="patch_156">
    <path clip-path="url(#p6712897454)" d="M 5642.184671 504 
L 5678.179342 504 
L 5678.179342 504 
L 5642.184671 504 
z
" style="fill:#b22222;fill-opacity:0.75;stroke:#000000;stroke-linejoin:miter;stroke-width:0.380455;"/>
   </g>
   <g id="patch_157">
    <path clip-path="url(#p6712897454)" d="M 5678.179342 504 
L 5714.174013 504 
L 5714.174013 504 
L 5678.179342 504 
z
" style="fill:#b22222;fill-opacity:0.75;stroke:#000000;stroke-linejoin:miter;stroke-width:0.380455;"/>
   </g>
   <g id="patch_158">
    <path clip-path="url(#p6712897454)" d="M 5714.174013 504 
L 5750.168684 504 
L 5750.168684 504 
L 5714.174013 504 
z
" style="fill:#b22222;fill-opacity:0.75;stroke:#000000;stroke-linejoin:miter;stroke-width:0.380455;"/>
   </g>
   <g id="patch_159">
    <path clip-path="url(#p6712897454)" d="M 5750.168684 504 
L 5786.163355 504 
L 5786.163355 504 
L 5750.168684 504 
z
" style="fill:#b22222;fill-opacity:0.75;stroke:#000000;stroke-linejoin:miter;stroke-width:0.380455;"/>
   </g>
   <g id="patch_160">
    <path clip-path="url(#p6712897454)" d="M 5786.163355 504 
L 5822.158026 504 
L 5822.158026 504 
L 5786.163355 504 
z
" style="fill:#b22222;fill-opacity:0.75;stroke:#000000;stroke-linejoin:miter;stroke-width:0.380455;"/>
   </g>
   <g id="patch_161">
    <path clip-path="url(#p6712897454)" d="M 5822.158026 504 
L 5858.152697 504 
L 5858.152697 504 
L 5822.158026 504 
z
" style="fill:#b22222;fill-opacity:0.75;stroke:#000000;stroke-linejoin:miter;stroke-width:0.380455;"/>
   </g>
   <g id="patch_162">
    <path clip-path="url(#p6712897454)" d="M 5858.152697 504 
L 5894.147368 504 
L 5894.147368 504 
L 5858.152697 504 
z
" style="fill:#b22222;fill-opacity:0.75;stroke:#000000;stroke-linejoin:miter;stroke-width:0.380455;"/>
   </g>
   <g id="patch_163">
    <path clip-path="url(#p6712897454)" d="M 5894.147368 504 
L 5930.142039 504 
L 5930.142039 504 
L 5894.147368 504 
z
" style="fill:#b22222;fill-opacity:0.75;stroke:#000000;stroke-linejoin:miter;stroke-width:0.380455;"/>
   </g>
   <g id="patch_164">
    <path clip-path="url(#p6712897454)" d="M 5930.142039 504 
L 5966.136711 504 
L 5966.136711 504 
L 5930.142039 504 
z
" style="fill:#b22222;fill-opacity:0.75;stroke:#000000;stroke-linejoin:miter;stroke-width:0.380455;"/>
   </g>
   <g id="patch_165">
    <path clip-path="url(#p6712897454)" d="M 5966.136711 504 
L 6002.131382 504 
L 6002.131382 504 
L 5966.136711 504 
z
" style="fill:#b22222;fill-opacity:0.75;stroke:#000000;stroke-linejoin:miter;stroke-width:0.380455;"/>
   </g>
   <g id="patch_166">
    <path clip-path="url(#p6712897454)" d="M 6002.131382 504 
L 6038.126053 504 
L 6038.126053 504 
L 6002.131382 504 
z
" style="fill:#b22222;fill-opacity:0.75;stroke:#000000;stroke-linejoin:miter;stroke-width:0.380455;"/>
   </g>
   <g id="patch_167">
    <path clip-path="url(#p6712897454)" d="M 6038.126053 504 
L 6074.120724 504 
L 6074.120724 504 
L 6038.126053 504 
z
" style="fill:#b22222;fill-opacity:0.75;stroke:#000000;stroke-linejoin:miter;stroke-width:0.380455;"/>
   </g>
   <g id="patch_168">
    <path clip-path="url(#p6712897454)" d="M 6074.120724 504 
L 6110.115395 504 
L 6110.115395 504 
L 6074.120724 504 
z
" style="fill:#b22222;fill-opacity:0.75;stroke:#000000;stroke-linejoin:miter;stroke-width:0.380455;"/>
   </g>
   <g id="patch_169">
    <path clip-path="url(#p6712897454)" d="M 6110.115395 504 
L 6146.110066 504 
L 6146.110066 504 
L 6110.115395 504 
z
" style="fill:#b22222;fill-opacity:0.75;stroke:#000000;stroke-linejoin:miter;stroke-width:0.380455;"/>
   </g>
   <g id="patch_170">
    <path clip-path="url(#p6712897454)" d="M 6146.110066 504 
L 6182.104737 504 
L 6182.104737 504 
L 6146.110066 504 
z
" style="fill:#b22222;fill-opacity:0.75;stroke:#000000;stroke-linejoin:miter;stroke-width:0.380455;"/>
   </g>
   <g id="patch_171">
    <path clip-path="url(#p6712897454)" d="M 6182.104737 504 
L 6218.099408 504 
L 6218.099408 504 
L 6182.104737 504 
z
" style="fill:#b22222;fill-opacity:0.75;stroke:#000000;stroke-linejoin:miter;stroke-width:0.380455;"/>
   </g>
   <g id="patch_172">
    <path clip-path="url(#p6712897454)" d="M 6218.099408 504 
L 6254.094079 504 
L 6254.094079 504 
L 6218.099408 504 
z
" style="fill:#b22222;fill-opacity:0.75;stroke:#000000;stroke-linejoin:miter;stroke-width:0.380455;"/>
   </g>
   <g id="patch_173">
    <path clip-path="url(#p6712897454)" d="M 6254.094079 504 
L 6290.08875 504 
L 6290.08875 504 
L 6254.094079 504 
z
" style="fill:#b22222;fill-opacity:0.75;stroke:#000000;stroke-linejoin:miter;stroke-width:0.380455;"/>
   </g>
   <g id="patch_174">
    <path clip-path="url(#p6712897454)" d="M 6290.08875 504 
L 6326.083421 504 
L 6326.083421 504 
L 6290.08875 504 
z
" style="fill:#b22222;fill-opacity:0.75;stroke:#000000;stroke-linejoin:miter;stroke-width:0.380455;"/>
   </g>
   <g id="patch_175">
    <path clip-path="url(#p6712897454)" d="M 6326.083421 504 
L 6362.078092 504 
L 6362.078092 504 
L 6326.083421 504 
z
" style="fill:#b22222;fill-opacity:0.75;stroke:#000000;stroke-linejoin:miter;stroke-width:0.380455;"/>
   </g>
   <g id="patch_176">
    <path clip-path="url(#p6712897454)" d="M 6362.078092 504 
L 6398.072763 504 
L 6398.072763 504 
L 6362.078092 504 
z
" style="fill:#b22222;fill-opacity:0.75;stroke:#000000;stroke-linejoin:miter;stroke-width:0.380455;"/>
   </g>
   <g id="patch_177">
    <path clip-path="url(#p6712897454)" d="M 6398.072763 504 
L 6434.067434 504 
L 6434.067434 504 
L 6398.072763 504 
z
" style="fill:#b22222;fill-opacity:0.75;stroke:#000000;stroke-linejoin:miter;stroke-width:0.380455;"/>
   </g>
   <g id="patch_178">
    <path clip-path="url(#p6712897454)" d="M 6434.067434 504 
L 6470.062105 504 
L 6470.062105 504 
L 6434.067434 504 
z
" style="fill:#b22222;fill-opacity:0.75;stroke:#000000;stroke-linejoin:miter;stroke-width:0.380455;"/>
   </g>
   <g id="patch_179">
    <path clip-path="url(#p6712897454)" d="M 6470.062105 504 
L 6506.056776 504 
L 6506.056776 504 
L 6470.062105 504 
z
" style="fill:#b22222;fill-opacity:0.75;stroke:#000000;stroke-linejoin:miter;stroke-width:0.380455;"/>
   </g>
   <g id="patch_180">
    <path clip-path="url(#p6712897454)" d="M 6506.056776 504 
L 6542.051447 504 
L 6542.051447 504 
L 6506.056776 504 
z
" style="fill:#b22222;fill-opacity:0.75;stroke:#000000;stroke-linejoin:miter;stroke-width:0.380455;"/>
   </g>
   <g id="patch_181">
    <path clip-path="url(#p6712897454)" d="M 6542.051447 504 
L 6578.046118 504 
L 6578.046118 504 
L 6542.051447 504 
z
" style="fill:#b22222;fill-opacity:0.75;stroke:#000000;stroke-linejoin:miter;stroke-width:0.380455;"/>
   </g>
   <g id="patch_182">
    <path clip-path="url(#p6712897454)" d="M 6578.046118 504 
L 6614.040789 504 
L 6614.040789 504 
L 6578.046118 504 
z
" style="fill:#b22222;fill-opacity:0.75;stroke:#000000;stroke-linejoin:miter;stroke-width:0.380455;"/>
   </g>
   <g id="patch_183">
    <path clip-path="url(#p6712897454)" d="M 6614.040789 504 
L 6650.035461 504 
L 6650.035461 504 
L 6614.040789 504 
z
" style="fill:#b22222;fill-opacity:0.75;stroke:#000000;stroke-linejoin:miter;stroke-width:0.380455;"/>
   </g>
   <g id="patch_184">
    <path clip-path="url(#p6712897454)" d="M 6650.035461 504 
L 6686.030132 504 
L 6686.030132 504 
L 6650.035461 504 
z
" style="fill:#b22222;fill-opacity:0.75;stroke:#000000;stroke-linejoin:miter;stroke-width:0.380455;"/>
   </g>
   <g id="patch_185">
    <path clip-path="url(#p6712897454)" d="M 6686.030132 504 
L 6722.024803 504 
L 6722.024803 504 
L 6686.030132 504 
z
" style="fill:#b22222;fill-opacity:0.75;stroke:#000000;stroke-linejoin:miter;stroke-width:0.380455;"/>
   </g>
   <g id="patch_186">
    <path clip-path="url(#p6712897454)" d="M 6722.024803 504 
L 6758.019474 504 
L 6758.019474 504 
L 6722.024803 504 
z
" style="fill:#b22222;fill-opacity:0.75;stroke:#000000;stroke-linejoin:miter;stroke-width:0.380455;"/>
   </g>
   <g id="patch_187">
    <path clip-path="url(#p6712897454)" d="M 6758.019474 504 
L 6794.014145 504 
L 6794.014145 504 
L 6758.019474 504 
z
" style="fill:#b22222;fill-opacity:0.75;stroke:#000000;stroke-linejoin:miter;stroke-width:0.380455;"/>
   </g>
   <g id="patch_188">
    <path clip-path="url(#p6712897454)" d="M 6794.014145 504 
L 6830.008816 504 
L 6830.008816 504 
L 6794.014145 504 
z
" style="fill:#b22222;fill-opacity:0.75;stroke:#000000;stroke-linejoin:miter;stroke-width:0.380455;"/>
   </g>
   <g id="patch_189">
    <path clip-path="url(#p6712897454)" d="M 6830.008816 504 
L 6866.003487 504 
L 6866.003487 504 
L 6830.008816 504 
z
" style="fill:#b22222;fill-opacity:0.75;stroke:#000000;stroke-linejoin:miter;stroke-width:0.380455;"/>
   </g>
   <g id="patch_190">
    <path clip-path="url(#p6712897454)" d="M 6866.003487 504 
L 6901.998158 504 
L 6901.998158 504 
L 6866.003487 504 
z
" style="fill:#b22222;fill-opacity:0.75;stroke:#000000;stroke-linejoin:miter;stroke-width:0.380455;"/>
   </g>
   <g id="patch_191">
    <path clip-path="url(#p6712897454)" d="M 6901.998158 504 
L 6937.992829 504 
L 6937.992829 504 
L 6901.998158 504 
z
" style="fill:#b22222;fill-opacity:0.75;stroke:#000000;stroke-linejoin:miter;stroke-width:0.380455;"/>
   </g>
   <g id="patch_192">
    <path clip-path="url(#p6712897454)" d="M 6937.992829 504 
L 6973.9875 504 
L 6973.9875 504 
L 6937.992829 504 
z
" style="fill:#b22222;fill-opacity:0.75;stroke:#000000;stroke-linejoin:miter;stroke-width:0.380455;"/>
   </g>
   <g id="patch_193">
    <path clip-path="url(#p6712897454)" d="M 6973.9875 504 
L 7009.982171 504 
L 7009.982171 504 
L 6973.9875 504 
z
" style="fill:#b22222;fill-opacity:0.75;stroke:#000000;stroke-linejoin:miter;stroke-width:0.380455;"/>
   </g>
   <g id="patch_194">
    <path clip-path="url(#p6712897454)" d="M 7009.982171 504 
L 7045.976842 504 
L 7045.976842 504 
L 7009.982171 504 
z
" style="fill:#b22222;fill-opacity:0.75;stroke:#000000;stroke-linejoin:miter;stroke-width:0.380455;"/>
   </g>
   <g id="patch_195">
    <path clip-path="url(#p6712897454)" d="M 7045.976842 504 
L 7081.971513 504 
L 7081.971513 504 
L 7045.976842 504 
z
" style="fill:#b22222;fill-opacity:0.75;stroke:#000000;stroke-linejoin:miter;stroke-width:0.380455;"/>
   </g>
   <g id="patch_196">
    <path clip-path="url(#p6712897454)" d="M 7081.971513 504 
L 7117.966184 504 
L 7117.966184 504 
L 7081.971513 504 
z
" style="fill:#b22222;fill-opacity:0.75;stroke:#000000;stroke-linejoin:miter;stroke-width:0.380455;"/>
   </g>
   <g id="patch_197">
    <path clip-path="url(#p6712897454)" d="M 7117.966184 504 
L 7153.960855 504 
L 7153.960855 504 
L 7117.966184 504 
z
" style="fill:#b22222;fill-opacity:0.75;stroke:#000000;stroke-linejoin:miter;stroke-width:0.380455;"/>
   </g>
   <g id="patch_198">
    <path clip-path="url(#p6712897454)" d="M 7153.960855 504 
L 7189.955526 504 
L 7189.955526 504 
L 7153.960855 504 
z
" style="fill:#b22222;fill-opacity:0.75;stroke:#000000;stroke-linejoin:miter;stroke-width:0.380455;"/>
   </g>
   <g id="patch_199">
    <path clip-path="url(#p6712897454)" d="M 7189.955526 504 
L 7225.950197 504 
L 7225.950197 504 
L 7189.955526 504 
z
" style="fill:#b22222;fill-opacity:0.75;stroke:#000000;stroke-linejoin:miter;stroke-width:0.380455;"/>
   </g>
   <g id="patch_200">
    <path clip-path="url(#p6712897454)" d="M 7225.950197 504 
L 7261.944868 504 
L 7261.944868 504 
L 7225.950197 504 
z
" style="fill:#b22222;fill-opacity:0.75;stroke:#000000;stroke-linejoin:miter;stroke-width:0.380455;"/>
   </g>
   <g id="patch_201">
    <path clip-path="url(#p6712897454)" d="M 7261.944868 504 
L 7297.939539 504 
L 7297.939539 504 
L 7261.944868 504 
z
" style="fill:#b22222;fill-opacity:0.75;stroke:#000000;stroke-linejoin:miter;stroke-width:0.380455;"/>
   </g>
   <g id="patch_202">
    <path clip-path="url(#p6712897454)" d="M 7297.939539 504 
L 7333.934211 504 
L 7333.934211 503.4564 
L 7297.939539 503.4564 
z
" style="fill:#b22222;fill-opacity:0.75;stroke:#000000;stroke-linejoin:miter;stroke-width:0.380455;"/>
   </g>
   <g id="matplotlib.axis_1">
    <g id="xtick_1">
     <g id="line2d_1">
      <defs>
       <path d="M 0 0 
L 0 -12 
" id="m946be4b10d" style="stroke:#000000;stroke-width:0.8;"/>
      </defs>
      <g>
       <use style="stroke:#000000;stroke-width:0.8;" x="135" xlink:href="#m946be4b10d" y="504"/>
      </g>
     </g>
     <g id="text_1">
      <!-- 0.00 -->
      <defs>
       <path d="M 4.15625 35.296875 
Q 4.15625 48 6.765625 55.734375 
Q 9.375 63.484375 14.515625 67.671875 
Q 19.671875 71.875 27.484375 71.875 
Q 33.25 71.875 37.59375 69.546875 
Q 41.9375 67.234375 44.765625 62.859375 
Q 47.609375 58.5 49.21875 52.21875 
Q 50.828125 45.953125 50.828125 35.296875 
Q 50.828125 22.703125 48.234375 14.96875 
Q 45.65625 7.234375 40.5 3 
Q 35.359375 -1.21875 27.484375 -1.21875 
Q 17.140625 -1.21875 11.234375 6.203125 
Q 4.15625 15.140625 4.15625 35.296875 
z
M 13.1875 35.296875 
Q 13.1875 17.671875 17.3125 11.828125 
Q 21.4375 6 27.484375 6 
Q 33.546875 6 37.671875 11.859375 
Q 41.796875 17.71875 41.796875 35.296875 
Q 41.796875 52.984375 37.671875 58.78125 
Q 33.546875 64.59375 27.390625 64.59375 
Q 21.34375 64.59375 17.71875 59.46875 
Q 13.1875 52.9375 13.1875 35.296875 
z
" id="ArialMT-48"/>
       <path d="M 9.078125 0 
L 9.078125 10.015625 
L 19.09375 10.015625 
L 19.09375 0 
z
" id="ArialMT-46"/>
      </defs>
      <g transform="translate(117.485156 534.884063)scale(0.18 -0.18)">
       <use xlink:href="#ArialMT-48"/>
       <use x="55.615234" xlink:href="#ArialMT-46"/>
       <use x="83.398438" xlink:href="#ArialMT-48"/>
       <use x="139.013672" xlink:href="#ArialMT-48"/>
      </g>
     </g>
    </g>
    <g id="xtick_2">
     <g id="line2d_2">
      <g>
       <use style="stroke:#000000;stroke-width:0.8;" x="302.4" xlink:href="#m946be4b10d" y="504"/>
      </g>
     </g>
     <g id="text_2">
      <!-- 0.02 -->
      <defs>
       <path d="M 50.34375 8.453125 
L 50.34375 0 
L 3.03125 0 
Q 2.9375 3.171875 4.046875 6.109375 
Q 5.859375 10.9375 9.828125 15.625 
Q 13.8125 20.3125 21.34375 26.46875 
Q 33.015625 36.03125 37.109375 41.625 
Q 41.21875 47.21875 41.21875 52.203125 
Q 41.21875 57.421875 37.46875 61 
Q 33.734375 64.59375 27.734375 64.59375 
Q 21.390625 64.59375 17.578125 60.78125 
Q 13.765625 56.984375 13.71875 50.25 
L 4.6875 51.171875 
Q 5.609375 61.28125 11.65625 66.578125 
Q 17.71875 71.875 27.9375 71.875 
Q 38.234375 71.875 44.234375 66.15625 
Q 50.25 60.453125 50.25 52 
Q 50.25 47.703125 48.484375 43.546875 
Q 46.734375 39.40625 42.65625 34.8125 
Q 38.578125 30.21875 29.109375 22.21875 
Q 21.1875 15.578125 18.9375 13.203125 
Q 16.703125 10.84375 15.234375 8.453125 
z
" id="ArialMT-50"/>
      </defs>
      <g transform="translate(284.885156 534.884063)scale(0.18 -0.18)">
       <use xlink:href="#ArialMT-48"/>
       <use x="55.615234" xlink:href="#ArialMT-46"/>
       <use x="83.398438" xlink:href="#ArialMT-48"/>
       <use x="139.013672" xlink:href="#ArialMT-50"/>
      </g>
     </g>
    </g>
    <g id="xtick_3">
     <g id="line2d_3">
      <g>
       <use style="stroke:#000000;stroke-width:0.8;" x="469.8" xlink:href="#m946be4b10d" y="504"/>
      </g>
     </g>
     <g id="text_3">
      <!-- 0.04 -->
      <defs>
       <path d="M 32.328125 0 
L 32.328125 17.140625 
L 1.265625 17.140625 
L 1.265625 25.203125 
L 33.9375 71.578125 
L 41.109375 71.578125 
L 41.109375 25.203125 
L 50.78125 25.203125 
L 50.78125 17.140625 
L 41.109375 17.140625 
L 41.109375 0 
z
M 32.328125 25.203125 
L 32.328125 57.46875 
L 9.90625 25.203125 
z
" id="ArialMT-52"/>
      </defs>
      <g transform="translate(452.285156 534.884063)scale(0.18 -0.18)">
       <use xlink:href="#ArialMT-48"/>
       <use x="55.615234" xlink:href="#ArialMT-46"/>
       <use x="83.398438" xlink:href="#ArialMT-48"/>
       <use x="139.013672" xlink:href="#ArialMT-52"/>
      </g>
     </g>
    </g>
    <g id="xtick_4">
     <g id="line2d_4">
      <g>
       <use style="stroke:#000000;stroke-width:0.8;" x="637.2" xlink:href="#m946be4b10d" y="504"/>
      </g>
     </g>
     <g id="text_4">
      <!-- 0.06 -->
      <defs>
       <path d="M 49.75 54.046875 
L 41.015625 53.375 
Q 39.84375 58.546875 37.703125 60.890625 
Q 34.125 64.65625 28.90625 64.65625 
Q 24.703125 64.65625 21.53125 62.3125 
Q 17.390625 59.28125 14.984375 53.46875 
Q 12.59375 47.65625 12.5 36.921875 
Q 15.671875 41.75 20.265625 44.09375 
Q 24.859375 46.4375 29.890625 46.4375 
Q 38.671875 46.4375 44.84375 39.96875 
Q 51.03125 33.5 51.03125 23.25 
Q 51.03125 16.5 48.125 10.71875 
Q 45.21875 4.9375 40.140625 1.859375 
Q 35.0625 -1.21875 28.609375 -1.21875 
Q 17.625 -1.21875 10.6875 6.859375 
Q 3.765625 14.9375 3.765625 33.5 
Q 3.765625 54.25 11.421875 63.671875 
Q 18.109375 71.875 29.4375 71.875 
Q 37.890625 71.875 43.28125 67.140625 
Q 48.6875 62.40625 49.75 54.046875 
z
M 13.875 23.1875 
Q 13.875 18.65625 15.796875 14.5 
Q 17.71875 10.359375 21.1875 8.171875 
Q 24.65625 6 28.46875 6 
Q 34.03125 6 38.03125 10.484375 
Q 42.046875 14.984375 42.046875 22.703125 
Q 42.046875 30.125 38.078125 34.390625 
Q 34.125 38.671875 28.125 38.671875 
Q 22.171875 38.671875 18.015625 34.390625 
Q 13.875 30.125 13.875 23.1875 
z
" id="ArialMT-54"/>
      </defs>
      <g transform="translate(619.685156 534.884063)scale(0.18 -0.18)">
       <use xlink:href="#ArialMT-48"/>
       <use x="55.615234" xlink:href="#ArialMT-46"/>
       <use x="83.398438" xlink:href="#ArialMT-48"/>
       <use x="139.013672" xlink:href="#ArialMT-54"/>
      </g>
     </g>
    </g>
    <g id="xtick_5">
     <g id="line2d_5">
      <g>
       <use style="stroke:#000000;stroke-width:0.8;" x="804.6" xlink:href="#m946be4b10d" y="504"/>
      </g>
     </g>
     <g id="text_5">
      <!-- 0.08 -->
      <defs>
       <path d="M 17.671875 38.8125 
Q 12.203125 40.828125 9.5625 44.53125 
Q 6.9375 48.25 6.9375 53.421875 
Q 6.9375 61.234375 12.546875 66.546875 
Q 18.171875 71.875 27.484375 71.875 
Q 36.859375 71.875 42.578125 66.421875 
Q 48.296875 60.984375 48.296875 53.171875 
Q 48.296875 48.1875 45.671875 44.5 
Q 43.0625 40.828125 37.75 38.8125 
Q 44.34375 36.671875 47.78125 31.875 
Q 51.21875 27.09375 51.21875 20.453125 
Q 51.21875 11.28125 44.71875 5.03125 
Q 38.234375 -1.21875 27.640625 -1.21875 
Q 17.046875 -1.21875 10.546875 5.046875 
Q 4.046875 11.328125 4.046875 20.703125 
Q 4.046875 27.6875 7.59375 32.390625 
Q 11.140625 37.109375 17.671875 38.8125 
z
M 15.921875 53.71875 
Q 15.921875 48.640625 19.1875 45.40625 
Q 22.46875 42.1875 27.6875 42.1875 
Q 32.765625 42.1875 36.015625 45.375 
Q 39.265625 48.578125 39.265625 53.21875 
Q 39.265625 58.0625 35.90625 61.359375 
Q 32.5625 64.65625 27.59375 64.65625 
Q 22.5625 64.65625 19.234375 61.421875 
Q 15.921875 58.203125 15.921875 53.71875 
z
M 13.09375 20.65625 
Q 13.09375 16.890625 14.875 13.375 
Q 16.65625 9.859375 20.171875 7.921875 
Q 23.6875 6 27.734375 6 
Q 34.03125 6 38.125 10.046875 
Q 42.234375 14.109375 42.234375 20.359375 
Q 42.234375 26.703125 38.015625 30.859375 
Q 33.796875 35.015625 27.4375 35.015625 
Q 21.234375 35.015625 17.15625 30.90625 
Q 13.09375 26.8125 13.09375 20.65625 
z
" id="ArialMT-56"/>
      </defs>
      <g transform="translate(787.085156 534.884063)scale(0.18 -0.18)">
       <use xlink:href="#ArialMT-48"/>
       <use x="55.615234" xlink:href="#ArialMT-46"/>
       <use x="83.398438" xlink:href="#ArialMT-48"/>
       <use x="139.013672" xlink:href="#ArialMT-56"/>
      </g>
     </g>
    </g>
    <g id="xtick_6">
     <g id="line2d_6">
      <g>
       <use style="stroke:#000000;stroke-width:0.8;" x="972" xlink:href="#m946be4b10d" y="504"/>
      </g>
     </g>
     <g id="text_6">
      <!-- 0.10 -->
      <defs>
       <path d="M 37.25 0 
L 28.46875 0 
L 28.46875 56 
Q 25.296875 52.984375 20.140625 49.953125 
Q 14.984375 46.921875 10.890625 45.40625 
L 10.890625 53.90625 
Q 18.265625 57.375 23.78125 62.296875 
Q 29.296875 67.234375 31.59375 71.875 
L 37.25 71.875 
z
" id="ArialMT-49"/>
      </defs>
      <g transform="translate(954.485156 534.884063)scale(0.18 -0.18)">
       <use xlink:href="#ArialMT-48"/>
       <use x="55.615234" xlink:href="#ArialMT-46"/>
       <use x="83.398438" xlink:href="#ArialMT-49"/>
       <use x="139.013672" xlink:href="#ArialMT-48"/>
      </g>
     </g>
    </g>
    <g id="text_7">
     <!-- # of Issues per day -->
     <defs>
      <path d="M 5.03125 -1.21875 
L 9.28125 19.578125 
L 1.03125 19.578125 
L 1.03125 26.859375 
L 10.75 26.859375 
L 14.359375 44.578125 
L 1.03125 44.578125 
L 1.03125 51.859375 
L 15.828125 51.859375 
L 20.0625 72.796875 
L 27.390625 72.796875 
L 23.140625 51.859375 
L 38.53125 51.859375 
L 42.78125 72.796875 
L 50.140625 72.796875 
L 45.90625 51.859375 
L 54.34375 51.859375 
L 54.34375 44.578125 
L 44.4375 44.578125 
L 40.765625 26.859375 
L 54.34375 26.859375 
L 54.34375 19.578125 
L 39.3125 19.578125 
L 35.0625 -1.21875 
L 27.734375 -1.21875 
L 31.9375 19.578125 
L 16.609375 19.578125 
L 12.359375 -1.21875 
z
M 18.0625 26.859375 
L 33.40625 26.859375 
L 37.0625 44.578125 
L 21.6875 44.578125 
z
" id="ArialMT-35"/>
      <path id="ArialMT-32"/>
      <path d="M 3.328125 25.921875 
Q 3.328125 40.328125 11.328125 47.265625 
Q 18.015625 53.03125 27.640625 53.03125 
Q 38.328125 53.03125 45.109375 46.015625 
Q 51.90625 39.015625 51.90625 26.65625 
Q 51.90625 16.65625 48.90625 10.90625 
Q 45.90625 5.171875 40.15625 2 
Q 34.421875 -1.171875 27.640625 -1.171875 
Q 16.75 -1.171875 10.03125 5.8125 
Q 3.328125 12.796875 3.328125 25.921875 
z
M 12.359375 25.921875 
Q 12.359375 15.96875 16.703125 11.015625 
Q 21.046875 6.0625 27.640625 6.0625 
Q 34.1875 6.0625 38.53125 11.03125 
Q 42.875 16.015625 42.875 26.21875 
Q 42.875 35.84375 38.5 40.796875 
Q 34.125 45.75 27.640625 45.75 
Q 21.046875 45.75 16.703125 40.8125 
Q 12.359375 35.890625 12.359375 25.921875 
z
" id="ArialMT-111"/>
      <path d="M 8.6875 0 
L 8.6875 45.015625 
L 0.921875 45.015625 
L 0.921875 51.859375 
L 8.6875 51.859375 
L 8.6875 57.375 
Q 8.6875 62.59375 9.625 65.140625 
Q 10.890625 68.5625 14.078125 70.671875 
Q 17.28125 72.796875 23.046875 72.796875 
Q 26.765625 72.796875 31.25 71.921875 
L 29.9375 64.265625 
Q 27.203125 64.75 24.75 64.75 
Q 20.75 64.75 19.09375 63.03125 
Q 17.4375 61.328125 17.4375 56.640625 
L 17.4375 51.859375 
L 27.546875 51.859375 
L 27.546875 45.015625 
L 17.4375 45.015625 
L 17.4375 0 
z
" id="ArialMT-102"/>
      <path d="M 9.328125 0 
L 9.328125 71.578125 
L 18.796875 71.578125 
L 18.796875 0 
z
" id="ArialMT-73"/>
      <path d="M 3.078125 15.484375 
L 11.765625 16.84375 
Q 12.5 11.625 15.84375 8.84375 
Q 19.1875 6.0625 25.203125 6.0625 
Q 31.25 6.0625 34.171875 8.515625 
Q 37.109375 10.984375 37.109375 14.3125 
Q 37.109375 17.28125 34.515625 19 
Q 32.71875 20.171875 25.53125 21.96875 
Q 15.875 24.421875 12.140625 26.203125 
Q 8.40625 27.984375 6.46875 31.125 
Q 4.546875 34.28125 4.546875 38.09375 
Q 4.546875 41.546875 6.125 44.5 
Q 7.71875 47.46875 10.453125 49.421875 
Q 12.5 50.921875 16.03125 51.96875 
Q 19.578125 53.03125 23.640625 53.03125 
Q 29.734375 53.03125 34.34375 51.265625 
Q 38.96875 49.515625 41.15625 46.5 
Q 43.359375 43.5 44.1875 38.484375 
L 35.59375 37.3125 
Q 35.015625 41.3125 32.203125 43.546875 
Q 29.390625 45.796875 24.265625 45.796875 
Q 18.21875 45.796875 15.625 43.796875 
Q 13.03125 41.796875 13.03125 39.109375 
Q 13.03125 37.40625 14.109375 36.03125 
Q 15.1875 34.625 17.484375 33.6875 
Q 18.796875 33.203125 25.25 31.453125 
Q 34.578125 28.953125 38.25 27.359375 
Q 41.9375 25.78125 44.03125 22.75 
Q 46.140625 19.734375 46.140625 15.234375 
Q 46.140625 10.84375 43.578125 6.953125 
Q 41.015625 3.078125 36.171875 0.953125 
Q 31.34375 -1.171875 25.25 -1.171875 
Q 15.140625 -1.171875 9.84375 3.03125 
Q 4.546875 7.234375 3.078125 15.484375 
z
" id="ArialMT-115"/>
      <path d="M 40.578125 0 
L 40.578125 7.625 
Q 34.515625 -1.171875 24.125 -1.171875 
Q 19.53125 -1.171875 15.546875 0.578125 
Q 11.578125 2.34375 9.640625 5 
Q 7.71875 7.671875 6.9375 11.53125 
Q 6.390625 14.109375 6.390625 19.734375 
L 6.390625 51.859375 
L 15.1875 51.859375 
L 15.1875 23.09375 
Q 15.1875 16.21875 15.71875 13.8125 
Q 16.546875 10.359375 19.234375 8.375 
Q 21.921875 6.390625 25.875 6.390625 
Q 29.828125 6.390625 33.296875 8.421875 
Q 36.765625 10.453125 38.203125 13.9375 
Q 39.65625 17.4375 39.65625 24.078125 
L 39.65625 51.859375 
L 48.4375 51.859375 
L 48.4375 0 
z
" id="ArialMT-117"/>
      <path d="M 42.09375 16.703125 
L 51.171875 15.578125 
Q 49.03125 7.625 43.21875 3.21875 
Q 37.40625 -1.171875 28.375 -1.171875 
Q 17 -1.171875 10.328125 5.828125 
Q 3.65625 12.84375 3.65625 25.484375 
Q 3.65625 38.578125 10.390625 45.796875 
Q 17.140625 53.03125 27.875 53.03125 
Q 38.28125 53.03125 44.875 45.953125 
Q 51.46875 38.875 51.46875 26.03125 
Q 51.46875 25.25 51.421875 23.6875 
L 12.75 23.6875 
Q 13.234375 15.140625 17.578125 10.59375 
Q 21.921875 6.0625 28.421875 6.0625 
Q 33.25 6.0625 36.671875 8.59375 
Q 40.09375 11.140625 42.09375 16.703125 
z
M 13.234375 30.90625 
L 42.1875 30.90625 
Q 41.609375 37.453125 38.875 40.71875 
Q 34.671875 45.796875 27.984375 45.796875 
Q 21.921875 45.796875 17.796875 41.75 
Q 13.671875 37.703125 13.234375 30.90625 
z
" id="ArialMT-101"/>
      <path d="M 6.59375 -19.875 
L 6.59375 51.859375 
L 14.59375 51.859375 
L 14.59375 45.125 
Q 17.4375 49.078125 21 51.046875 
Q 24.5625 53.03125 29.640625 53.03125 
Q 36.28125 53.03125 41.359375 49.609375 
Q 46.4375 46.1875 49.015625 39.953125 
Q 51.609375 33.734375 51.609375 26.3125 
Q 51.609375 18.359375 48.75 11.984375 
Q 45.90625 5.609375 40.453125 2.21875 
Q 35.015625 -1.171875 29 -1.171875 
Q 24.609375 -1.171875 21.109375 0.6875 
Q 17.625 2.546875 15.375 5.375 
L 15.375 -19.875 
z
M 14.546875 25.640625 
Q 14.546875 15.625 18.59375 10.84375 
Q 22.65625 6.0625 28.421875 6.0625 
Q 34.28125 6.0625 38.453125 11.015625 
Q 42.625 15.96875 42.625 26.375 
Q 42.625 36.28125 38.546875 41.203125 
Q 34.46875 46.140625 28.8125 46.140625 
Q 23.1875 46.140625 18.859375 40.890625 
Q 14.546875 35.640625 14.546875 25.640625 
z
" id="ArialMT-112"/>
      <path d="M 6.5 0 
L 6.5 51.859375 
L 14.40625 51.859375 
L 14.40625 44 
Q 17.4375 49.515625 20 51.265625 
Q 22.5625 53.03125 25.640625 53.03125 
Q 30.078125 53.03125 34.671875 50.203125 
L 31.640625 42.046875 
Q 28.421875 43.953125 25.203125 43.953125 
Q 22.3125 43.953125 20.015625 42.21875 
Q 17.71875 40.484375 16.75 37.40625 
Q 15.28125 32.71875 15.28125 27.15625 
L 15.28125 0 
z
" id="ArialMT-114"/>
      <path d="M 40.234375 0 
L 40.234375 6.546875 
Q 35.296875 -1.171875 25.734375 -1.171875 
Q 19.53125 -1.171875 14.328125 2.25 
Q 9.125 5.671875 6.265625 11.796875 
Q 3.421875 17.921875 3.421875 25.875 
Q 3.421875 33.640625 6 39.96875 
Q 8.59375 46.296875 13.765625 49.65625 
Q 18.953125 53.03125 25.34375 53.03125 
Q 30.03125 53.03125 33.6875 51.046875 
Q 37.359375 49.078125 39.65625 45.90625 
L 39.65625 71.578125 
L 48.390625 71.578125 
L 48.390625 0 
z
M 12.453125 25.875 
Q 12.453125 15.921875 16.640625 10.984375 
Q 20.84375 6.0625 26.5625 6.0625 
Q 32.328125 6.0625 36.34375 10.765625 
Q 40.375 15.484375 40.375 25.140625 
Q 40.375 35.796875 36.265625 40.765625 
Q 32.171875 45.75 26.171875 45.75 
Q 20.3125 45.75 16.375 40.96875 
Q 12.453125 36.1875 12.453125 25.875 
z
" id="ArialMT-100"/>
      <path d="M 40.4375 6.390625 
Q 35.546875 2.25 31.03125 0.53125 
Q 26.515625 -1.171875 21.34375 -1.171875 
Q 12.796875 -1.171875 8.203125 3 
Q 3.609375 7.171875 3.609375 13.671875 
Q 3.609375 17.484375 5.34375 20.625 
Q 7.078125 23.78125 9.890625 25.6875 
Q 12.703125 27.59375 16.21875 28.5625 
Q 18.796875 29.25 24.03125 29.890625 
Q 34.671875 31.15625 39.703125 32.90625 
Q 39.75 34.71875 39.75 35.203125 
Q 39.75 40.578125 37.25 42.78125 
Q 33.890625 45.75 27.25 45.75 
Q 21.046875 45.75 18.09375 43.578125 
Q 15.140625 41.40625 13.71875 35.890625 
L 5.125 37.0625 
Q 6.296875 42.578125 8.984375 45.96875 
Q 11.671875 49.359375 16.75 51.1875 
Q 21.828125 53.03125 28.515625 53.03125 
Q 35.15625 53.03125 39.296875 51.46875 
Q 43.453125 49.90625 45.40625 47.53125 
Q 47.359375 45.171875 48.140625 41.546875 
Q 48.578125 39.3125 48.578125 33.453125 
L 48.578125 21.734375 
Q 48.578125 9.46875 49.140625 6.21875 
Q 49.703125 2.984375 51.375 0 
L 42.1875 0 
Q 40.828125 2.734375 40.4375 6.390625 
z
M 39.703125 26.03125 
Q 34.90625 24.078125 25.34375 22.703125 
Q 19.921875 21.921875 17.671875 20.9375 
Q 15.4375 19.96875 14.203125 18.09375 
Q 12.984375 16.21875 12.984375 13.921875 
Q 12.984375 10.40625 15.640625 8.0625 
Q 18.3125 5.71875 23.4375 5.71875 
Q 28.515625 5.71875 32.46875 7.9375 
Q 36.421875 10.15625 38.28125 14.015625 
Q 39.703125 17 39.703125 22.796875 
z
" id="ArialMT-97"/>
      <path d="M 6.203125 -19.96875 
L 5.21875 -11.71875 
Q 8.109375 -12.5 10.25 -12.5 
Q 13.1875 -12.5 14.9375 -11.515625 
Q 16.703125 -10.546875 17.828125 -8.796875 
Q 18.65625 -7.46875 20.515625 -2.25 
Q 20.75 -1.515625 21.296875 -0.09375 
L 1.609375 51.859375 
L 11.078125 51.859375 
L 21.875 21.828125 
Q 23.96875 16.109375 25.640625 9.8125 
Q 27.15625 15.875 29.25 21.625 
L 40.328125 51.859375 
L 49.125 51.859375 
L 29.390625 -0.875 
Q 26.21875 -9.421875 24.46875 -12.640625 
Q 22.125 -17 19.09375 -19.015625 
Q 16.0625 -21.046875 11.859375 -21.046875 
Q 9.328125 -21.046875 6.203125 -19.96875 
z
" id="ArialMT-121"/>
     </defs>
     <g transform="translate(477.462656 555.565)scale(0.18 -0.18)">
      <use xlink:href="#ArialMT-35"/>
      <use x="55.615234" xlink:href="#ArialMT-32"/>
      <use x="83.398438" xlink:href="#ArialMT-111"/>
      <use x="139.013672" xlink:href="#ArialMT-102"/>
      <use x="166.796875" xlink:href="#ArialMT-32"/>
      <use x="194.580078" xlink:href="#ArialMT-73"/>
      <use x="222.363281" xlink:href="#ArialMT-115"/>
      <use x="272.363281" xlink:href="#ArialMT-115"/>
      <use x="322.363281" xlink:href="#ArialMT-117"/>
      <use x="377.978516" xlink:href="#ArialMT-101"/>
      <use x="433.59375" xlink:href="#ArialMT-115"/>
      <use x="483.59375" xlink:href="#ArialMT-32"/>
      <use x="511.376953" xlink:href="#ArialMT-112"/>
      <use x="566.992188" xlink:href="#ArialMT-101"/>
      <use x="622.607422" xlink:href="#ArialMT-114"/>
      <use x="655.908203" xlink:href="#ArialMT-32"/>
      <use x="683.691406" xlink:href="#ArialMT-100"/>
      <use x="739.306641" xlink:href="#ArialMT-97"/>
      <use x="794.921875" xlink:href="#ArialMT-121"/>
     </g>
    </g>
   </g>
   <g id="matplotlib.axis_2">
    <g id="ytick_1">
     <g id="line2d_7">
      <defs>
       <path d="M 0 0 
L 12 0 
" id="m6a414dfaf7" style="stroke:#000000;stroke-width:0.8;"/>
      </defs>
      <g>
       <use style="stroke:#000000;stroke-width:0.8;" x="135" xlink:href="#m6a414dfaf7" y="504"/>
      </g>
     </g>
     <g id="text_8">
      <!-- 0 -->
      <g transform="translate(106.990313 510.442031)scale(0.18 -0.18)">
       <use xlink:href="#ArialMT-48"/>
      </g>
     </g>
    </g>
    <g id="ytick_2">
     <g id="line2d_8">
      <g>
       <use style="stroke:#000000;stroke-width:0.8;" x="135" xlink:href="#m6a414dfaf7" y="449.64"/>
      </g>
     </g>
     <g id="text_9">
      <!-- 100 -->
      <g transform="translate(86.970938 456.082031)scale(0.18 -0.18)">
       <use xlink:href="#ArialMT-49"/>
       <use x="55.615234" xlink:href="#ArialMT-48"/>
       <use x="111.230469" xlink:href="#ArialMT-48"/>
      </g>
     </g>
    </g>
    <g id="ytick_3">
     <g id="line2d_9">
      <g>
       <use style="stroke:#000000;stroke-width:0.8;" x="135" xlink:href="#m6a414dfaf7" y="395.28"/>
      </g>
     </g>
     <g id="text_10">
      <!-- 200 -->
      <g transform="translate(86.970938 401.722031)scale(0.18 -0.18)">
       <use xlink:href="#ArialMT-50"/>
       <use x="55.615234" xlink:href="#ArialMT-48"/>
       <use x="111.230469" xlink:href="#ArialMT-48"/>
      </g>
     </g>
    </g>
    <g id="ytick_4">
     <g id="line2d_10">
      <g>
       <use style="stroke:#000000;stroke-width:0.8;" x="135" xlink:href="#m6a414dfaf7" y="340.92"/>
      </g>
     </g>
     <g id="text_11">
      <!-- 300 -->
      <defs>
       <path d="M 4.203125 18.890625 
L 12.984375 20.0625 
Q 14.5 12.59375 18.140625 9.296875 
Q 21.78125 6 27 6 
Q 33.203125 6 37.46875 10.296875 
Q 41.75 14.59375 41.75 20.953125 
Q 41.75 27 37.796875 30.921875 
Q 33.84375 34.859375 27.734375 34.859375 
Q 25.25 34.859375 21.53125 33.890625 
L 22.515625 41.609375 
Q 23.390625 41.5 23.921875 41.5 
Q 29.546875 41.5 34.03125 44.421875 
Q 38.53125 47.359375 38.53125 53.46875 
Q 38.53125 58.296875 35.25 61.46875 
Q 31.984375 64.65625 26.8125 64.65625 
Q 21.6875 64.65625 18.265625 61.421875 
Q 14.84375 58.203125 13.875 51.765625 
L 5.078125 53.328125 
Q 6.6875 62.15625 12.390625 67.015625 
Q 18.109375 71.875 26.609375 71.875 
Q 32.46875 71.875 37.390625 69.359375 
Q 42.328125 66.84375 44.9375 62.5 
Q 47.5625 58.15625 47.5625 53.265625 
Q 47.5625 48.640625 45.0625 44.828125 
Q 42.578125 41.015625 37.703125 38.765625 
Q 44.046875 37.3125 47.5625 32.6875 
Q 51.078125 28.078125 51.078125 21.140625 
Q 51.078125 11.765625 44.234375 5.25 
Q 37.40625 -1.265625 26.953125 -1.265625 
Q 17.53125 -1.265625 11.296875 4.34375 
Q 5.078125 9.96875 4.203125 18.890625 
z
" id="ArialMT-51"/>
      </defs>
      <g transform="translate(86.970938 347.362031)scale(0.18 -0.18)">
       <use xlink:href="#ArialMT-51"/>
       <use x="55.615234" xlink:href="#ArialMT-48"/>
       <use x="111.230469" xlink:href="#ArialMT-48"/>
      </g>
     </g>
    </g>
    <g id="ytick_5">
     <g id="line2d_11">
      <g>
       <use style="stroke:#000000;stroke-width:0.8;" x="135" xlink:href="#m6a414dfaf7" y="286.56"/>
      </g>
     </g>
     <g id="text_12">
      <!-- 400 -->
      <g transform="translate(86.970938 293.002031)scale(0.18 -0.18)">
       <use xlink:href="#ArialMT-52"/>
       <use x="55.615234" xlink:href="#ArialMT-48"/>
       <use x="111.230469" xlink:href="#ArialMT-48"/>
      </g>
     </g>
    </g>
    <g id="ytick_6">
     <g id="line2d_12">
      <g>
       <use style="stroke:#000000;stroke-width:0.8;" x="135" xlink:href="#m6a414dfaf7" y="232.2"/>
      </g>
     </g>
     <g id="text_13">
      <!-- 500 -->
      <defs>
       <path d="M 4.15625 18.75 
L 13.375 19.53125 
Q 14.40625 12.796875 18.140625 9.390625 
Q 21.875 6 27.15625 6 
Q 33.5 6 37.890625 10.78125 
Q 42.28125 15.578125 42.28125 23.484375 
Q 42.28125 31 38.0625 35.34375 
Q 33.84375 39.703125 27 39.703125 
Q 22.75 39.703125 19.328125 37.765625 
Q 15.921875 35.84375 13.96875 32.765625 
L 5.71875 33.84375 
L 12.640625 70.609375 
L 48.25 70.609375 
L 48.25 62.203125 
L 19.671875 62.203125 
L 15.828125 42.96875 
Q 22.265625 47.46875 29.34375 47.46875 
Q 38.71875 47.46875 45.15625 40.96875 
Q 51.609375 34.46875 51.609375 24.265625 
Q 51.609375 14.546875 45.953125 7.46875 
Q 39.0625 -1.21875 27.15625 -1.21875 
Q 17.390625 -1.21875 11.203125 4.25 
Q 5.03125 9.71875 4.15625 18.75 
z
" id="ArialMT-53"/>
      </defs>
      <g transform="translate(86.970938 238.642031)scale(0.18 -0.18)">
       <use xlink:href="#ArialMT-53"/>
       <use x="55.615234" xlink:href="#ArialMT-48"/>
       <use x="111.230469" xlink:href="#ArialMT-48"/>
      </g>
     </g>
    </g>
    <g id="ytick_7">
     <g id="line2d_13">
      <g>
       <use style="stroke:#000000;stroke-width:0.8;" x="135" xlink:href="#m6a414dfaf7" y="177.84"/>
      </g>
     </g>
     <g id="text_14">
      <!-- 600 -->
      <g transform="translate(86.970938 184.282031)scale(0.18 -0.18)">
       <use xlink:href="#ArialMT-54"/>
       <use x="55.615234" xlink:href="#ArialMT-48"/>
       <use x="111.230469" xlink:href="#ArialMT-48"/>
      </g>
     </g>
    </g>
    <g id="ytick_8">
     <g id="line2d_14">
      <g>
       <use style="stroke:#000000;stroke-width:0.8;" x="135" xlink:href="#m6a414dfaf7" y="123.48"/>
      </g>
     </g>
     <g id="text_15">
      <!-- 700 -->
      <defs>
       <path d="M 4.734375 62.203125 
L 4.734375 70.65625 
L 51.078125 70.65625 
L 51.078125 63.8125 
Q 44.234375 56.546875 37.515625 44.484375 
Q 30.8125 32.421875 27.15625 19.671875 
Q 24.515625 10.6875 23.78125 0 
L 14.75 0 
Q 14.890625 8.453125 18.0625 20.40625 
Q 21.234375 32.375 27.171875 43.484375 
Q 33.109375 54.59375 39.796875 62.203125 
z
" id="ArialMT-55"/>
      </defs>
      <g transform="translate(86.970938 129.922031)scale(0.18 -0.18)">
       <use xlink:href="#ArialMT-55"/>
       <use x="55.615234" xlink:href="#ArialMT-48"/>
       <use x="111.230469" xlink:href="#ArialMT-48"/>
      </g>
     </g>
    </g>
    <g id="ytick_9">
     <g id="line2d_15">
      <g>
       <use style="stroke:#000000;stroke-width:0.8;" x="135" xlink:href="#m6a414dfaf7" y="69.12"/>
      </g>
     </g>
     <g id="text_16">
      <!-- 800 -->
      <g transform="translate(86.970938 75.562031)scale(0.18 -0.18)">
       <use xlink:href="#ArialMT-56"/>
       <use x="55.615234" xlink:href="#ArialMT-48"/>
       <use x="111.230469" xlink:href="#ArialMT-48"/>
      </g>
     </g>
    </g>
    <g id="text_17">
     <!-- # of Users -->
     <defs>
      <path d="M 54.6875 71.578125 
L 64.15625 71.578125 
L 64.15625 30.21875 
Q 64.15625 19.4375 61.71875 13.078125 
Q 59.28125 6.734375 52.90625 2.75 
Q 46.53125 -1.21875 36.1875 -1.21875 
Q 26.125 -1.21875 19.71875 2.25 
Q 13.328125 5.71875 10.59375 12.28125 
Q 7.859375 18.84375 7.859375 30.21875 
L 7.859375 71.578125 
L 17.328125 71.578125 
L 17.328125 30.28125 
Q 17.328125 20.953125 19.0625 16.53125 
Q 20.796875 12.109375 25.015625 9.71875 
Q 29.25 7.328125 35.359375 7.328125 
Q 45.796875 7.328125 50.234375 12.0625 
Q 54.6875 16.796875 54.6875 30.28125 
z
" id="ArialMT-85"/>
     </defs>
     <g transform="translate(79.393438 327.571875)rotate(-90)scale(0.18 -0.18)">
      <use xlink:href="#ArialMT-35"/>
      <use x="55.615234" xlink:href="#ArialMT-32"/>
      <use x="83.398438" xlink:href="#ArialMT-111"/>
      <use x="139.013672" xlink:href="#ArialMT-102"/>
      <use x="166.796875" xlink:href="#ArialMT-32"/>
      <use x="194.580078" xlink:href="#ArialMT-85"/>
      <use x="266.796875" xlink:href="#ArialMT-115"/>
      <use x="316.796875" xlink:href="#ArialMT-101"/>
      <use x="372.412109" xlink:href="#ArialMT-114"/>
      <use x="405.712891" xlink:href="#ArialMT-115"/>
     </g>
    </g>
   </g>
   <g id="patch_203">
    <path d="M 135 504 
L 135 69.12 
" style="fill:none;stroke:#000000;stroke-linecap:square;stroke-linejoin:miter;"/>
   </g>
   <g id="patch_204">
    <path d="M 972 504 
L 972 69.12 
" style="fill:none;stroke:#000000;stroke-linecap:square;stroke-linejoin:miter;"/>
   </g>
   <g id="patch_205">
    <path d="M 135 504 
L 972 504 
" style="fill:none;stroke:#000000;stroke-linecap:square;stroke-linejoin:miter;"/>
   </g>
   <g id="patch_206">
    <path d="M 135 69.12 
L 972 69.12 
" style="fill:none;stroke:#000000;stroke-linecap:square;stroke-linejoin:miter;"/>
   </g>
  </g>
 </g>
 <defs>
  <clipPath id="p6712897454">
   <rect height="434.88" width="837" x="135" y="69.12"/>
  </clipPath>
 </defs>
</svg>
